<?xml version="1.0" encoding="UTF-8"?><svg id="Layer_2" xmlns="http://www.w3.org/2000/svg" width="414.97" height="300.88" viewBox="0 0 414.97 300.88"><defs><style>.cls-1,.cls-2{fill:#fcfaf9;stroke:#fcfaf9;stroke-miterlimit:10;}.cls-2{stroke-width:2px;}</style></defs><path class="cls-1" d="M107.99,100.96c-1.03.76-1.76,1.65-2.27,2.62.76-.87,1.51-1.75,2.27-2.62h0Z"/><path class="cls-1" d="M95.53,121.03c-.09-.62-.14-1.25-.12-1.89-.02.64.03,1.26.12,1.89Z"/><path class="cls-1" d="M103.22,106.47l-7.33,9.78c2.44-3.26,4.88-6.52,7.33-9.78h0Z"/><path class="cls-1" d="M139.44,140.66c-.21.16-.59.52-1.01.89.67-.02,1.12-.25,1.01-.89Z"/><path class="cls-1" d="M109.83,122.1c.13.23.29.5.48.78-.19-.28-.35-.55-.48-.78Z"/><path class="cls-1" d="M109.66,121.77c.05.1.1.21.17.33-.06-.12-.12-.23-.17-.33-1.6-3.54-1.6-8.7-2.07-12.54l.27-5.51c-.09,1.84-.18,3.68-.27,5.51.46,3.84.47,9,2.07,12.54Z"/><path class="cls-1" d="M109.51,35.39c-.26.06-.46.13-.62.21.14-.05.28-.1.43-.13.06-.03.12-.05.19-.08Z"/><polygon class="cls-1" points="126.87 96.76 126.87 96.76 129.55 89.41 126.87 96.76"/><path class="cls-1" d="M139.48,144.88c1.3.12,2.58.19,3.85.21h0c-1.27-.02-2.55-.09-3.85-.21Z"/><path class="cls-1" d="M113.72,127.6h0c0-.07-.13-.26-.33-.53.2.27.32.46.33.53h0Z"/><path class="cls-1" d="M95.97,122.87c-.19-.61-.34-1.22-.43-1.85.09.62.24,1.24.43,1.85Z"/><path class="cls-1" d="M130.99,143.51c-1.17-.26-2.34-.53-3.49-.83,1.15.29,2.32.57,3.49.83Z"/><path class="cls-1" d="M97.14,125.55c-.48-.87-.88-1.76-1.17-2.67.29.91.69,1.8,1.17,2.67Z"/><path class="cls-1" d="M136.31,144.49c-1.41-.21-2.83-.47-4.24-.76,1.41.29,2.82.55,4.24.76Z"/><path class="cls-1" d="M144.33,145.11c3.29-.03,6.43-.46,9.23-1.47.35-.13.7-.24,1.03-.38-.33.14-.68.26-1.03.38-2.8,1.01-5.94,1.44-9.23,1.47Z"/><path class="cls-1" d="M153.07,140.39c.43-.04.86-.08,1.26-.14-.43.06-.84.09-1.26.14Z"/><path class="cls-1" d="M143.33,145.09c.33,0,.67.02,1,.02-.33,0-.67-.02-1-.02h0Z"/><path class="cls-1" d="M189.08,197.91l-.19-1.79c-.49.44.17,1.24.06,2.18.02-.15.07-.28.13-.39Z"/><path class="cls-1" d="M108.33,107.15c.16.12.33.22.5.32,0-.12,0-.23.02-.35l-.52.03Z"/><path class="cls-2" d="M225.21,14.13c-2.31-1.87-9.12-6.05-12.03-5.2-1.81.53-7.61,3.84-9.26,5.09-4.36,3.29-7.95,7.19-10.9,11.49h1.73c3.69-5.28,8.33-9.73,14.02-12.69,3.2-1.66,4.99-2.29,8.44-1.15,5.83,1.92,11.12,7.39,15.25,13.84h2.53c-2.7-4.38-5.98-8.3-9.79-11.38Z"/><path class="cls-2" d="M233.02,15.7c2.03,2.5,4.05,5.9,5.93,9.8h2.22c-1.51-3.18-3.08-6.02-4.62-8.21-17.82-25.31-36.83-12.87-49.53,8.21h2.14c10.47-17.53,27.1-30.5,43.87-9.8Z"/><path class="cls-2" d="M139.48,144.88c-1.05-.1-2.11-.24-3.18-.39-1.41-.21-2.83-.47-4.24-.76-.36-.07-.72-.15-1.08-.23-1.17-.26-2.34-.53-3.49-.83-4.54-1.15-8.86-2.53-12.54-3.72-1.36-.44-2.84-1.04-4.35-1.79-1.51-.75-3.07-1.63-4.57-2.64-.3-.2-.6-.41-.9-.62-.59-.42-1.18-.86-1.74-1.32-2.55-2.05-4.8-4.45-6.25-7.06-.48-.87-.88-1.76-1.17-2.67-.19-.61-.34-1.22-.43-1.85-.09-.62-.14-1.25-.12-1.89.02-.95.18-1.92.48-2.89l7.33-9.78h0s0,0,0,0c.83-.96,1.67-1.92,2.5-2.89.51-.98,1.24-1.86,2.27-2.62h0s0,0,0,0c-.04.92-.09,1.84-.13,2.76l-.27,5.51c.46,3.84.47,9,2.07,12.54.05.1.1.21.17.33.13.23.29.5.48.78.93,1.41,2.43,3.27,3.09,4.19.2.27.32.46.33.53h0c4.78,4.56,18.12,10.22,29.61,12.18v-.75c-1.19-.1-2.15-.21-2.64-.3-4.33-.85-22.51-7.77-25.17-10.6-5.12-5.42-7.04-13.21-6.69-20.64-.17-.11-.35-.2-.5-.32l.52-.03c.11-1.92.37-3.81.77-5.63.73-1.19,5.22-.29,6.73-.43,4.14-.4,7.51-1.48,10.09-3.09l.44-1.21h0l2.69-7.35c.27-2.4.59-4.05-.49-6.34-4.52-9.58-18.39-12.94-23.84-23.03-2.8-5.19-4.14-11.96-1.66-17.5.62-1.39,2.58-5.87,5.32-6.93.15-.09.36-.16.62-.21.85-.29,2.51-.31,5.67.11-2.08,4.04-6.94,11.74-4.9,16.38,2.19,4.98,11.61,10.32,15.66,14.49,7.46,7.67,10.87,16.63,7.23,26.99-2.62,7.47-6.82,11.44-14.6,13.2l-9.72.56c0,.12-.01.23-.02.35,4.81,3,14.96-.84,18.85-3.71,5.39-3.98,8.99-14.76,8.88-21.29-.08-5.03-5.74-13.39-9.26-16.96-4.67-4.73-12.67-8.31-15.22-14.78-.88-2.24.92-7.14,1.96-9.27.61-1.24,4.17-5.68,3.25-6.63-.38-.39-8.06-.57-8.88-.32-4.41,1.35-7.36,9.36-7.75,13.58-1.09,11.81,8.05,19.53,16.47,26.05.78.61,1.83.61,2.47,1.09,6.28,4.7,10.71,8.8,7.71,17.17-2.07,5.76-5.3,6.77-11.04,7.3-3.39.32-7.05-1.02-9.88,1.07-3.67,2.71-4.86,5.8-7.3,9.22-2.79,3.91-6.6,6.27-5.19,11.64,2.33,8.85,12.67,16.37,21.08,18.91,8.63,2.6,18.89,6.17,28.35,6.21v-1.65c-1.27-.02-2.55-.09-3.85-.21Z"/><path class="cls-2" d="M147.84,146.48c2.14-.29,6.86-2.64,7.76-.49.13.3.76,5.61.83,6.46,1.26,13.71-2.57,31.21-4.44,44.89-2.39,17.57-2.36,34.78-4.34,52.31-.59,5.22-2.98,12.86-2.51,18.09.29,3.19,4.21,5.31,6.92,6.6,10.67,5.08,23.82,7.92,35.21,10.93,10,2.64,21.42,9.18,30.87.93,1.2-1.04,1.71-3.01,2.88-4.04,2.05-1.8,14.23-3.03,17.5-3.08,6.17-.09,10.48,2.25,16.6-1.44,10.12-6.1,11.9-19.25,12.83-30.11,1.63-19.11.46-38.47,1.43-57.65.85-16.87,3.25-33.65,3.34-50.59.03-4.78-2.79-8.66,4.52-7.14,19.69,4.09,40.19,37.12,36.67,56.76-1.32,7.35-9.91,16.44-7.92,23.85,1.17,4.38,3.31,3.69,1.36,8.88-3.64,9.64-15.71,14.15-20.94,23.17-3.72,6.43-4.57,20.59-2.78,27.76,1.59,6.37,8.47,18.99,12.73,23.91,3.29,3.8,7.26-2.36,6.79-3.84-.5-1.55-2.59-3.31-3.58-5.09-6.32-11.34-8.08-22.86-5.38-35.49,2.51-11.72,13.25-15.43,17.01-26.41,1.82-5.33-.12-6.78-.6-11.42-.6-5.71,6.39-15.73,8.34-21.8,6.14-19.09.06-39.27-11.84-54.78-8.24-10.75-18.02-14.38-30.79-16.58-9.13-1.57-21.43-.79-27.91-8.87-6.98-8.71-3.38-17.06-1.21-26.66.95-.87.85.14,1.38.69,4.97,5.07,11,11.26,18.91,10.79,5.73-.34,3.15-3.46,5.66-6.83.08-1.36-4.92-.68-6.22-.84-6.36-.79-11.81-4.63-15.08-10.11-2.78-4.66-1.19-19.07-1.87-25.34-.82-7.59-4.55-19.35-8.83-28.36h-2.22c5.86,12.15,10.36,29.18,9.43,39.27-.07.76.11,1.23-.82,1.56-.86-1.52-2.7-1.88-3.27-3.64-.85-2.62-.56-10.41-1.01-13.89-1.02-7.82-3.87-16.16-8.27-23.3h-2.53c4.36,6.82,7.41,14.75,8.39,20.8.33,2.03,1.75,15.94,1.01,16.6-3.87-.08-7.78-.13-11.64.12-9.24.61-24.82,1.45-33.45,3.26-4.24.9-9.15,3.31-13.34,4.65.24-4.19-.3-8.43.08-12.62.98-10.97,4.55-23.24,11.25-32.81h-1.73c-7.85,11.44-11.03,25.82-11.07,39.85,0,3.12,1.95,6.88-1.87,8.32-.89-7.89-2.23-15.84-.94-23.76,1.61-7.19,5.15-16.29,10-24.41h-2.14c-.44.72-.86,1.45-1.28,2.19-11.92,21.03-9.13,39.62-4.13,62.08,3.43,15.41-4.65,34.54-17.83,43.36-2.2,1.47-4.03,1.32-6.02,2.45-1.73.98-3.09,3.19-4.29,3.57-1.14.37-6.61.15-10.12-.15v.75c3.52.6,6.87.85,9.74.61.42-.04.84-.08,1.26-.14l1.19,2.45c-.29.25-.61.42-.94.56-.33.14-.68.26-1.03.38-2.8,1.01-5.94,1.44-9.23,1.47-.33,0-.67-.02-1-.02v1.65c1.53,0,3.04-.07,4.51-.27ZM249.59,77.71c1.49,1.98,2.58,4.71,4.11,6.6,3.59,4.42,11.22,6.63,16.75,6.61l-.54,3.85c-2.95,2.84-14.53-3.09-16.94-5.64-.77-.81-3.72-4.63-4.12-5.54-.63-1.43-.34-4.69.74-5.88ZM305.68,232.92c-2.05,2.65-5.33,4.85-7.27,7.66-1.33.77-.99,1.02-1.72,1.65-1.38,3.16-2.48,1.82-3.42,6.36-.59,2.82-1.45,6.71-2.07,10.64-.63,7.37.13,14.51,3.34,22.09.74,1.75,2.51,6,3.33,7.42,1.3,2.24,5.45,4.36,1.37,6.31.2.58-2.04-.33-6.02-7.62-1.5-2.84-3.85-5.58-5.25-8.41-4.88-9.88-4.65-28.02,2.47-36.79,4.1-5.04,10.67-8.46,14.84-13.69l4.52-6.74c1.5,2.93-2.24,8.7-4.11,11.11ZM273.77,121.97c3.48,1.19,7.37,2.04,11.19,3.08.02,0,.04,0,.06.01.05.01.12.03.19.06,5.41,1.48,10.68,3.38,14.5,7.2,5.66,5.3,10.58,14.13,12.42,19.6,1.08,3.21,1.74,2.9,2.52,6.19,1.4,5.85,1.17.99,2.88,6.74,2.66,2.2,1.8,5.49,2.05,8.26,1.2,13.54-3.27,22.92-9.29,34.82l-1.79,6.78c-3.27-8.46,3.88-14.84,6.2-22.49,2.71-8.95-.07-20.45-3.67-28.87-6.55-15.35-21.25-31.07-38.35-33.5l-.68-7.06,1.76-.81ZM157.07,137.47c.73-.68,4.1-1.53,5.44-2.26,6.3-3.47,13.59-11.81,16.5-18.39,5.48-12.38,5.08-20.4,2.35-33.31-.56-2.65-2.2-3.84-.54-7.13l-.11-.67.26-.51-.31-.6c1.22-.63,1.94-1.92,3.11-2.62,7.72-4.68,42.44-8.11,52.45-7.91,8.84.18,13.11,3.1,11.49,12.63-2.69,15.84-14.16,35.45,9.09,42.98,2.98.97,10.91,1.03,12.09,1.61,1.52.74,1.86,8.56,1.95,10.57.83,18.35-1.96,36.68-2.99,54.95-1.29,22.78.48,47.82-2.85,70.16-.35,2.37-2.87,11.5-4.15,13.07-.76.92-3.25,1.19-4.21,2.32l1.3,1.07c-5.09,6.43-12.12,3.69-18.61,3.91-4.33.15-15.5,1.11-18.67,3.6-4.09,3.21-2.62,5.45-9.51,7.19-7.01,1.77-13.24-1.47-19.91-3.1l-.32-.29c-.31-.21-.53-.18-.64-.27l-.43-.15c-6.83-1.78-13.93-2.78-20.59-5.17-3.25-1.17-6.32-2.85-9.55-4.11-3.2-1.25-11.15-2.64-12.75-6.46-1.17-2.78,1.66-15.96,2.08-19.77,1.62-14.8,1.3-30.32,3.37-44.75,2.29-15.89,5.89-32.77,5.27-48.98-.12-3.03-2.27-16.03-.59-17.6Z"/><path class="cls-1" d="M115.18,35.5c-3.16-.41-4.83-.4-5.67-.11.95-.21,2.67-.2,5.67.11Z"/><path class="cls-1" d="M285.02,125.06s-.04,0-.06-.01c.08.02.17.05.25.07-.07-.02-.14-.04-.19-.06Z"/><path class="cls-2" d="M198.16,223.22c5.53,1.37,15.61,1.44,21.49,1.31,3.7-.09,16.58-.51,19.39-1.39,7.27-2.29,6.85-13.35,6.75-19.65-.08-5.2-.73-24.43-2.36-28.2-.14-.33-1.8-2.75-1.97-2.8-6.3,2.97-12.81.12-19.26.73-8.34.78-16.54,4.08-25.21,3-1.58-.2-6.54-2.09-7.53-.96-.05,6.13-1.36,12.2-1.86,18.26-.32,3.84-1.52,19.82-.76,22.4,1.3,4.41,7.15,6.27,11.32,7.3ZM234.26,175.72c-1.94.85-4.36,1.47-6.45,1.81-4.57.75-13.23,1.45-17.72.9-1.02-.12-2.24-.29-3.11-.85,9.04-1.23,18.17-3.65,27.28-1.86ZM188.89,196.13l-.12-1.17c.82-2.29,1.04-17.05,2.49-17.63l16.92,2.67c8.62.8,26.14-.17,33.1-5.19.56-.41.38-.92.73.18,1.67,5.17,2.73,30,2.07,35.89-.36,3.29-1.29,8.7-4.53,10.19-1.63.75-10.78,1.27-13.2,1.4-7.61.41-29.15.71-35.03-3.31l-2.61-3.01c-.27-.34-.44-.68-.57-1.1-.66-2.12.48-13.82.81-16.74.11-.94-.55-1.74-.06-2.18Z"/></svg>