<svg width="35" height="35" viewBox="0 0 35 35" fill="none" xmlns="http://www.w3.org/2000/svg">
<path fill-rule="evenodd" clip-rule="evenodd" d="M7.50062 0C5.51183 -1.46648e-07 3.60445 0.789846 2.1979 2.19586C0.791342 3.60188 0.000763744 5.50895 0 7.49774V27.4994C0 29.4887 0.790241 31.3965 2.19688 32.8031C3.60352 34.2098 5.51133 35 7.50062 35H27.5023C29.4911 34.9992 31.3981 34.2087 32.8041 32.8021C34.2102 31.3955 35 29.4882 35 27.4994V7.49774C34.9992 5.50945 34.2091 3.60281 32.8031 2.19688C31.3972 0.790946 29.4906 0.000763406 27.5023 0H7.50062ZM29.6597 7.50926C29.6597 8.08221 29.4321 8.63169 29.027 9.03683C28.6218 9.44197 28.0723 9.66957 27.4994 9.66957C26.9264 9.66957 26.3769 9.44197 25.9718 9.03683C25.5667 8.63169 25.3391 8.08221 25.3391 7.50926C25.3391 6.93631 25.5667 6.38682 25.9718 5.98168C26.3769 5.57655 26.9264 5.34894 27.4994 5.34894C28.0723 5.34894 28.6218 5.57655 29.027 5.98168C29.4321 6.38682 29.6597 6.93631 29.6597 7.50926ZM17.5043 11.5073C15.9153 11.5073 14.3914 12.1385 13.2678 13.2621C12.1443 14.3857 11.513 15.9096 11.513 17.4986C11.513 19.0875 12.1443 20.6114 13.2678 21.735C14.3914 22.8586 15.9153 23.4898 17.5043 23.4898C19.0933 23.4898 20.6172 22.8586 21.7408 21.735C22.8644 20.6114 23.4956 19.0875 23.4956 17.4986C23.4956 15.9096 22.8644 14.3857 21.7408 13.2621C20.6172 12.1385 19.0933 11.5073 17.5043 11.5073ZM8.62974 17.4986C8.62974 15.1456 9.56444 12.8891 11.2282 11.2253C12.892 9.56156 15.1485 8.62686 17.5014 8.62686C19.8544 8.62686 22.1109 9.56156 23.7747 11.2253C25.4384 12.8891 26.3731 15.1456 26.3731 17.4986C26.3731 19.8515 25.4384 22.108 23.7747 23.7718C22.1109 25.4356 19.8544 26.3703 17.5014 26.3703C15.1485 26.3703 12.892 25.4356 11.2282 23.7718C9.56444 22.108 8.62974 19.8515 8.62974 17.4986Z" fill="white"/>
</svg>
