<?xml version="1.0" encoding="UTF-8"?><svg id="Layer_3" xmlns="http://www.w3.org/2000/svg" width="414.97" height="300.88" viewBox="0 0 414.97 300.88"><defs><style>.cls-1,.cls-2{fill:#fcfaf9;stroke:#fcfaf9;stroke-miterlimit:10;}.cls-2{stroke-width:2px;}</style></defs><path class="cls-2" d="M231.63,95.91l.78,8.19c.27,1.9,5.32.17,4.36-2.62l-3.18-1.62c3.11-11.44,10.69-2.95,18.48-3.88l-4.36-2.16c7.57.94,13.28-6.81,19.59-8.28,18.54-4.33,43.12,4.46,47.88,24.39,6.93,29.04-15.34,58.32-32.05,79.94-4.42,5.72-11.76,10.85-15.1,17.68-2.48,5.07-.48,12.85-7.21,14.09v-15.84c0-.89,2.44-5.17-1.08-6-.29,21.25-3.99,35.96-10.99,59.17l-1.14,3.48c-4.69,9.16-8.13,19.38-14.82,27.07,1.94-.62,3.7-1.11,4.49-1.05-.07.62-.48,1.22-1.08,1.8.43-.32.82-.66,1.06-.97,1.4-1.86,1.8-5.68,3.08-7.84,8.32-14.03,13.29-23.25,17.1-39.72,1.35-5.85,2.55-11.86,2.34-17.87,11.17.5,8.09-8.84,11.05-15.72,2.97-6.9,14.03-16.47,19.3-23.31,15.98-20.69,30.01-39.96,28.66-67.59-1.31-26.86-26.52-37.56-50.77-34.27-6.69.91-12.33,6.75-18.93,8.39l-17.42,1.32c.05,1.14.05,2.23-.03,3.22Z"/><path class="cls-1" d="M231.63,95.91c.09-.99.08-2.08.03-3.22l-.34.03.31,3.2Z"/><path class="cls-2" d="M254.55,160.7c2.08,8.28,4.41,16.56,5.16,25.44.35,4.13-.23,8.41.02,12.55,1.61-.22,1.81-4.7,2.04-6.14.24-1.49-.11-5.53.18-5.83.18-.18,3.03,0,4.92-1.07,1.62-.92,2.48-1.49,4.61-2.85l1.35-.5c15.31-16.27,26.64-37.85,27.36-60.6.5-15.88-9.62-22.38-24.64-22.52-4.48-.04-19.88,4.38-24.61,6.07-5.34,1.9-11.9,4.53-12.08,10.93-.05,1.7,3.44,8.48,4.5,10.62,5.09,10.25,8.4,22.83,11.18,33.89ZM242.24,112.39c4.14.93,5.61-2.54,8.73-3.85,10.48-4.4,30.04-9.69,39.91-2.72,14.59,10.31,2.03,41.33-5.08,53.93-5.88,10.43-13.97,19.53-24.96,24.74-1.22-8.95-1.55-17.75-3.41-26.65-1.43-6.83-4.62-19.37-7.01-25.77-.93-2.5-9.58-18.43-8.18-19.68Z"/><path class="cls-1" d="M232.42,289.94c.12-.14.23-.29.35-.43-2.84.91-6.08,2.11-7.23,2.3-26.4,4.38-54.4,4.47-79.66-6.06-1.09-.45-2.05-1.09-3.03-1.7.09.52,3.89,5.75,1.84,4.95,3.25,2.34,7.76,3.72,10.97,4.45,20.78,4.7,44.4,4.32,65.24,2.49,2.63-.23,12.08-2.58,15.28-5.67-1.74,1.29-4.5,2.26-3.76-.32Z"/><path class="cls-1" d="M142.86,284.04c-.72-.45-1.44-.89-2.23-1.22.24,2.57,1.87,4.59,4.07,6.18,2.05.8-1.75-4.44-1.84-4.95Z"/><path class="cls-1" d="M237.26,288.46c-.79-.06-2.55.43-4.49,1.05-.12.14-.23.3-.35.43-.74,2.58,2.02,1.61,3.76.32.6-.58,1-1.18,1.08-1.8Z"/><path class="cls-2" d="M237.83,6.99c-10.62-6.42-25.84.91-36.65,2.6-25.38,3.97-49.22-8.48-72.09-5.43-5.18.69-12.57,8.56-6.99,13.66,6.45,5.9,11.76,6.14,16.94,15.83,23.36,43.7-12.2,83.19-24.15,122.38-8.63,28.3-5.03,64.15,6.02,91.09l.79,2.23c1.82,4.51,3.3,9.37,5.37,13.68,2.5,5.21,10.5,18.57,15.55,24.6,1.01.78,1.66,1.18,2.09,1.35-2.2-1.58-3.83-3.6-4.07-6.18.79.33,1.51.77,2.23,1.22,0,0,0,0,0,0-.4-2.66-12.29-18.75-14.02-22.76-17.68-40.99-21.08-82.69-3.29-122.99,15.55-35.23,34.73-65.4,17.12-104.97-.87-1.95-8.12-14.06-9.15-14.88-2.3-1.85-5.09-.57-5.87-1.29-.28-.26,0-1.76-.55-2.65-.31-.49-1.34-.51-1.44-.69-2.3-4.42,5.11-5.28,7.87-5.3,19.83-.15,35.84,14,55.65,13.14,10.18-.44,28.07-8.77,38.47-9.64,3.01-.25,5.66-.31,8.51.84,5.37,16.41-6.53,31.91-8.11,47.65-.76,7.56,0,17.27,0,25.13,0,.27,2.49,10.62,3.59,10.3l-.31-3.2.34-.03c-.32-7.27-2.99-17.11-2.51-23.45.45-5.91,6.62-33.14,8.97-38.05.76-1.59,2.69-1.79,3.07-2.62,4.33-9.3,6.82-15.42-3.36-21.58ZM190.25,17.24c-8.09.25-19.15-.15-25.59-5.36,5.81-.1,12.31,2.05,17.98,2.21,8.6.25,17.28-2.51,25.72-1.12l-18.11,4.26Z"/></svg>