<?xml version="1.0" encoding="UTF-8"?>
<svg id="Layer_1" data-name="Layer 1" xmlns="http://www.w3.org/2000/svg" viewBox="0 0 1231.03 657.35">
  <path d="M1015.76,346.58c29.75,1.33,38.49,3.64,62.05,4.7,2.77.12,43.05,9.92,33.72-28.18-1.68-6.86-21.04-28.45-21.04-28.45-8.43-15-22.15-14.34-34.18-15.39-50.29-4.43-91.13-10.57-164.85,4.87-44.54,9.33-107.78-19.35-343.91-4.41-62.13,3.93-149.45-14.51-221.18-14-31.85.23-65.94,13.8-106.46,17.58-29.29,2.73-66.71,22.27-82.78,21.26-6.8-.43-16.11,6.48-15.1,20.83,0,.13,19.96,10.84,20.13,10.89,26.34,7.25,19.14,3.97,36.38,4.46,35.05.98,47.81,0,67.21,1.54,97.94,7.72,43.1,3.9,183.47-.35,36.08-1.09,87.83-17.53,188.28-22.26,60.98-2.87,250.17,23.66,287.01,21.52,21.31-1.24,80.56,2.38,111.26,5.4Z" stroke="#000" stroke-miterlimit="10" stroke-width="2"/>
  <path d="M1074.08,328.88c9.86,8.01,11.99,11.45,19.79,17.79.92.75,11.09,16.14,22.97-7.83,2.14-4.31,3.96-21.33,3.96-21.33,3.02-10.59-2.04-13.56-5.81-17.09-15.79-14.77-27.61-28.22-59.48-37.39-19.26-5.54-29.93-37.28-118.29-86.31-23.25-12.9-46.4-44.68-71.64-61.87-11.21-7.63-28.5-8.21-44.15-15.94-11.31-5.58-32.14-3.58-37.34-8.07-2.2-1.9-8.2-.24-13.55,8.18-.05.07,2.66,11.04,2.7,11.1,6.31,10.55,5.1,6.93,10.93,11.4,11.84,9.1,16.69,11.65,22.85,17.25,31.12,28.26,13.49,12.72,64.18,44.51,13.03,8.17,37.62,11.42,74.57,33.21,22.42,13.22,77.92,74.43,91.62,82.19,7.93,4.49,27.17,20.99,36.69,30.19Z" stroke="#000" stroke-miterlimit="10" stroke-width="2"/>
  <path d="M783.34,490.49c-11.41,5.57-15.43,6.06-24.47,10.47-1.06.52-19.3,3.27-2.56,24.13,3.01,3.76,17.68,12.56,17.68,12.56,8.34,7.19,13.16,3.86,17.95,1.91,20.05-8.12,37.22-13.18,58.94-38.23,13.12-15.14,46.41-11.48,128.05-71.02,21.48-15.67,60.05-23.3,86.26-38.97,11.64-6.96,19.44-22.4,33.02-33.35,9.82-7.91,16.76-27.65,23.02-30.49,2.65-1.2,3.66-7.34-1.72-15.74-.05-.07-11.13-2.23-11.21-2.22-12.22,1.29-8.43,1.71-14.94,5.12-13.24,6.92-17.59,10.24-25.26,13.47-38.72,16.35-17.22,6.89-67.37,39.51-12.89,8.38-26.18,29.33-61.49,53.69-21.43,14.78-100.3,39.39-113.1,48.56-7.4,5.31-30.47,15.83-42.82,20.59Z" stroke="#000" stroke-miterlimit="10" stroke-width="2"/>
</svg>