<svg width="35" height="35" viewBox="0 0 35 35" fill="none" xmlns="http://www.w3.org/2000/svg">
<path fill-rule="evenodd" clip-rule="evenodd" d="M6.36364 0C4.6759 0 3.05728 0.670453 1.86387 1.86387C0.670453 3.05728 0 4.6759 0 6.36364V28.6364C0 30.3241 0.670453 31.9427 1.86387 33.1361C3.05728 34.3295 4.6759 35 6.36364 35H28.6364C30.3241 35 31.9427 34.3295 33.1361 33.1361C34.3295 31.9427 35 30.3241 35 28.6364V6.36364C35 4.6759 34.3295 3.05728 33.1361 1.86387C31.9427 0.670453 30.3241 0 28.6364 0H6.36364ZM17.5445 4.77273C11.9795 4.77273 8.05477 9.08727 7.62045 13.3891C7.37864 15.7834 7.85273 17.9248 8.83273 19.3582C9.09264 19.7379 9.49276 19.9989 9.94506 20.0836C10.3974 20.1683 10.8648 20.0699 11.2445 19.81C11.6243 19.5501 11.8852 19.15 11.97 18.6977C12.0547 18.2454 11.9563 17.7779 11.6964 17.3982C11.2955 16.8095 10.8898 15.5464 11.0727 13.7391C11.3384 11.1141 13.8568 8.24409 17.5445 8.24409C20.4384 8.24409 22.015 9.28773 22.8836 10.4873C23.8064 11.7648 24.1039 13.4686 23.9209 14.9784C23.7316 16.5439 23.2543 18.1284 22.4907 19.223C21.7811 20.2395 20.9093 20.7566 19.6636 20.6325C18.6661 20.5323 18.2064 19.9898 17.92 19.312C17.76 18.9207 17.6587 18.508 17.6193 18.087C17.9534 16.9336 18.2255 15.8582 18.367 14.9736C18.4625 14.4009 18.5261 13.7677 18.453 13.203C18.3989 12.7655 18.1252 11.4768 16.7618 11.1761C16.2577 11.0593 15.7313 11.0827 15.2396 11.244C14.748 11.4053 14.3099 11.6982 13.973 12.0909C13.2984 12.8609 13.055 13.8998 13.055 14.9466C13.055 15.4589 13.1855 15.9664 13.3032 16.3434C13.4305 16.7491 13.5927 17.15 13.7423 17.4889C13.8356 17.6967 13.9236 17.8855 14.0064 18.0552L13.9395 18.27C13.4543 19.8355 12.8641 21.5632 12.2818 23.2559L12.0464 23.94C11.5484 25.3798 11.068 26.775 10.6861 27.9602C10.5452 28.3984 10.5841 28.8746 10.7943 29.2841C11.0045 29.6936 11.3688 30.0028 11.8069 30.1438C12.2451 30.2847 12.7213 30.2458 13.1308 30.0356C13.5403 29.8254 13.8495 29.4611 13.9905 29.023C14.3595 27.8759 14.8273 26.5205 15.3268 25.0759L15.5639 24.3855C15.7548 23.8318 15.9457 23.2734 16.1366 22.7102C16.8939 23.4055 17.9264 23.9464 19.3184 24.0864C22.0818 24.3632 24.0768 23.0157 25.3384 21.2068C26.5459 19.4759 27.1409 17.2741 27.3668 15.3936C27.6277 13.2316 27.2459 10.597 25.6964 8.4525C24.0895 6.23159 21.3961 4.77273 17.5445 4.77273Z" fill="white"/>
</svg>
