<?xml version="1.0" encoding="UTF-8"?><svg id="Layer_3" xmlns="http://www.w3.org/2000/svg" width="414.97" height="300.88" viewBox="0 0 414.97 300.88"><defs><style>.cls-1,.cls-2{fill:#f0f0f0;stroke:#fcfaf9;stroke-miterlimit:10;}.cls-2{stroke-width:2px;}</style></defs><path class="cls-2" d="M33.83,114.4h0l-2.2-.6c-.4-1-.3-2.3.2-3.7-.5,1.4-.6,2.7-.2,3.7h0l2.2.6Z"/><path class="cls-2" d="M154.33,209.9c-1.7.9-3.4,2.6-4.8,5.4h0c1.4-2.8,3.1-4.5,4.8-5.4Z"/><path class="cls-2" d="M9.93,126.1c0,6.2,4.6,12.5,15.6,13.3h0c-11-.9-15.6-7.1-15.6-13.3Z"/><path class="cls-2" d="M32.73,161.6c-2.6-5.8-8.2-11.9-8-18.4-.2,6.5,5.4,12.6,8,18.4v.4-.4Z"/><path class="cls-2" d="M111.93,66.4c-5.6,3-6.6-.6-10-.7-.9,0-2,.3-3.1.7h0c-2.5,1-5.3,2.5-7.7,2.2h0c2.4.3,5.2-1.3,7.7-2.2,1.1-.4,2.2-.8,3.1-.8,3.4,0,4.4,3.7,10,.7,1.7-.9,2.6-2,3.1-3.1-.5,1.1-1.4,2.2-3.1,3.1h0v.1Z"/><path class="cls-2" d="M41.23,86.9c-.9,2.9,1.6,5.8,1.5,7v.2-.2c0-1.2-2.4-4.1-1.5-7Z"/><path class="cls-2" d="M118.03,55.3c-.9.3-1.7.6-2.1,1.2h0c.4-.6,1.1-.9,2.1-1.2,1.4-.5,3.2-.9,4.8-2.4-1.6,1.4-3.4,1.9-4.8,2.3h0v.1Z"/><path class="cls-2" d="M117.53,54.5c5.6-2.6,5.9-11.8,5.4-17.1-1.2-14.4-12.3-20-20.5-30.2h0c8.3,10.2,19.3,15.8,20.5,30.2.5,5.3,0,14.5-5.4,17.1h0Z"/><path class="cls-2" d="M146.53,268.9c-4.1-5.1,0-8.3,0-13.6h0c0,5.3-4.1,8.5,0,13.6.7.8,17.2,10.1,18.5,10.5,4.7,1.6,11.5,1.5,16.4,1.5h0c-4.9,0-11.8.1-16.4-1.5-1.3-.5-17.8-9.7-18.5-10.5Z"/><path class="cls-2" d="M119.43,191.1c-1.6,0-2.6.4-3.9.3,1.3,0,2.4-.4,3.9-.3Z"/><path class="cls-1" d="M194.23,270.6h0c-11.2.5-10.9,18.6-2.1,20.1-8.8-1.5-9.1-19.6,2.1-20.1Z"/><path class="cls-1" d="M197.23,270.9c-.5-.2-1.1-.3-2-.3.9,0,1.5.1,2,.3h0Z"/><path class="cls-2" d="M52.43,177.3c-4-1.2-7.9-2.4-9.1-2.8-4.6-1.3-14.4-.5-14.7-6.6.3,6.2,10.1,5.3,14.7,6.6,1.2.4,5.1,1.5,9.1,2.8,5.2,1.6,10.6,3.3,11.1,3.7,2.5,1.9,2.4,7,3.7,9.6,2.5,4.9,9,5.2,13.8,3.7,3.6-1.1,4.5-5.6,6.6-5.8,2.7-.2,12.8,1.2,17.9,2.2.9.2,1.6.3,2.2.4,9.2,2.1,5.4,2.3,7.6,8.8,2.2,6.7,7.4.7,10.1,1.1.8.1,2.2.9,4,2,6.2,4.1,16.6,13,18.3,15.8,1.8,2.8,1.5,5.4,4,8.3,4.3,4.9,9.1,1.2,10.2,9.2,1.3,9-5.3,12.9-7.1,20.9h0l1.3.9h-.1c0,.1-1.3-.8-1.3-.8,1.8-8,8.4-11.9,7.1-21-1.2-8.1-5.9-4.3-10.2-9.2-2.5-2.9-2.2-5.5-4-8.3s-12.1-11.7-18.3-15.8h0c-1.7-1.1-3.1-1.9-4-2-2.7-.4-7.9,5.6-10.1-1.1-2.1-6.5,1.6-6.7-7.6-8.8-.5-.1-1.2-.3-2.1-.4l.2-1.1h0l-.2,1.1c-5.1-.9-15.2-2.4-17.9-2.2-2.1.2-3,4.7-6.6,5.8-4.8,1.5-11.3,1.1-13.8-3.7-1.3-2.6-1.2-7.8-3.7-9.6-.5-.4-5.9-2.1-11.1-3.7"/><path class="cls-2" d="M177.53,279.2h0c-9.5-1.4-16.2-1.9-23.7-9.1h0c7.6,7.2,14.3,7.7,23.8,9.1h-.1Z"/><path class="cls-1" d="M197.83,274.7h0c-.2-.4.9-1.9.4-2.9.4,1.1-.7,2.5-.4,2.9Z"/><path class="cls-1" d="M201.93,286.7h0c2.4-2.7,3-6,1.4-8.5,1.6,2.6,1,5.9-1.4,8.5Z"/><path class="cls-2" d="M60.23,178.2c.3,0,.6.1.9.2-.3,0-.6-.1-.9-.2Z"/><path class="cls-1" d="M323.13,220.8c.3,0,.6-.2.7-.6-.1.4-.4.6-.7.6Z"/><path class="cls-1" d="M297.32,236.02l1.1.47,1.91,1.42c.8,3.4,1.4,7.4,0,10.3,1.3-2.9.7-6.8,0-10.3l-.55-.31-1.51-.79-.96-.79Z"/><path class="cls-2" d="M67.73,174.8c.3-.3.7-.6,1.1-.9-.4.3-.7.6-1.1.9Z"/><path class="cls-2" d="M40.33,163.6h0c-3.9-.8-7.2.8-8.3,2.8,1-2,4.4-3.6,8.3-2.8h0c.5,0,1.1.2,1.6.4h0c-.5-.2-1.1-.4-1.6-.5h0v.1Z"/><path class="cls-2" d="M66.83,175.7c-1.4,1.4-2.6,2.7-4.8,2.8h-.5.5c2.2,0,3.4-1.4,4.8-2.8Z"/><path class="cls-2" d="M44.53,173.2c.7.5,4.3,1.8,8.1,3h0c-3.8-1.2-7.4-2.4-8.1-3-2.3-1.8.5-10.6-3.2-10h0c3.7-.6.9,8.3,3.2,10Z"/><path class="cls-1" d="M209.53,284.8c-.2.2-.5.3-.7.5.3-.1.5-.3.7-.5Z"/><path class="cls-1" d="M251.83,274.7c2.4,2,3.8,5.7-.9,5-.6,0-1.2-.3-1.7-.6.5.3,1.1.5,1.7.6,4.7.7,3.3-3,.9-5Z"/><path class="cls-2" d="M43.63,96.9c.5-.5,1-.8,1.4-1,2.7-1.2,7-.3,9.2-2.8-2.2,2.5-6.4,1.6-9.1,2.8-.4.2-.9.5-1.4,1h-.1Z"/><path class="cls-2" d="M67.23,80.1h-.3l-13.3,7h0l13.3-6.9h.3c6.9,4.8,11.3,9.6,20.2,4.7.8-.5,1.5-1,2.1-1.5-.6.5-1.3,1-2.1,1.5-8.8,4.9-13.3,0-20.2-4.8Z"/><path class="cls-1" d="M291.54,252.5c1.2,0,2.5-.1,3.9-.5h0c-1.5.4-2.8.5-3.9.5Z"/><path class="cls-1" d="M295.04,235.7c.4,0,.8,0,1.2.1-.4,0-.8,0-1.2-.1Z"/><path class="cls-2" d="M28.83,137.9c1.3-1.5,3.6-1.3,5.9-3.1,1.3-.9,2.3-1.8,3.1-2.7-.8.8-1.8,1.7-3.1,2.7-2.4,1.8-4.6,1.6-5.9,3.1Z"/><path class="cls-2" d="M154.73,257.4l-8.2-2.1h0l8.2,2.1h0Z"/><path class="cls-1" d="M177.53,279.2h0c1,.2,4.1.3,3.9,1.7h0c.2-1.4-2.8-1.6-3.9-1.7Z"/><path class="cls-2" d="M178.53,279.2h0c-9.5-1.4-16.2-1.9-23.8-9.1h0c2.6-4,5.88-6.78,4.24-10.72-.36-.85-4.04-1.47-4.04-1.47l.7-.5s-7.27-3.55-9.1-2.1c-4.15,3.3-3.2,8.5.9,13.6.7.8,17.2,10.1,18.5,10.5,4.6,1.6,11.5,1.5,16.4,1.5.2-1.4-2.8-1.6-3.9-1.7h.1ZM150.13,267.6c-2.8-.5-1.7-8.9,1-10.2l3.5,7.7-4.5,2.6h0v-.1Z"/><path class="cls-2" d="M153.83,270.1c2.6-4,1-7.7,2.2-11.8h0c-1.2,4.1.4,7.8-2.2,11.8h0Z"/><path class="cls-2" d="M138.73,207.8c-1.9-1.4-5.6-3.3-8.3-5l-1.7.4c6.2,4.1,16.6,13,18.3,15.8,1.8,2.8,1.5,5.4,4,8.3,4.3,4.9,9.1,1.2,10.2,9.2,1.3,9-5.3,12.9-7.1,21l1.3.9c0-.3.2-.5.3-.8,3.5-9.2,13.6-15.1,5.7-27.1h0c12.8-6.7,1.7-25.4-7.7-20.5-1.7.9-3.4,2.6-4.8,5.4h0c-2.1,1.5-8.4-6.2-10.2-7.5h0v-.1ZM152.23,214.9c5.8-8,12.3.2,13.1,7.1,0,.9-.5,1.7-1.1,2.4-7.9,9.5-18-1.1-12-9.5Z"/><path class="cls-2" d="M156.33,257.4c-.1.3-.2.5-.3.8h0c0-.3.2-.5.3-.8,3.5-9.2,13.6-15.1,5.7-27.1h0c7.9,12-2.2,17.9-5.7,27.1Z"/><path class="cls-2" d="M162.03,230.3h0c12.9-6.7,1.7-25.4-7.7-20.5,9.3-4.9,20.5,13.7,7.7,20.5Z"/><path class="cls-2" d="M132.73,204.3h0c2.4,1.5,5.7,3.1,7.5,4.4,1.7,1.2,7.4,7.8,9.3,6.5h0c-1.9,1.2-7.6-5.4-9.3-6.5-1.8-1.3-5.1-2.9-7.5-4.4h0Z"/><path class="cls-2" d="M115.53,191.4h-.8c-3-.5-6-1.1-9-1.7h0c3,.6,6,1.1,9,1.7h.8Z"/><path class="cls-2" d="M125.33,200.5c.6.7,1.6,1.5,2.8,2.3h0c-1.2-.8-2.2-1.6-2.8-2.3-2.8-3.4-.6-7-6.5-8.9-.8-.3-1.5-.4-2.2-.4.6,0,1.3.2,2.2.4,5.9,1.9,3.8,5.5,6.5,8.9Z"/><path class="cls-2" d="M106.63,191c9.2,2.1,5.5,2.3,7.6,8.8,2.2,6.7,7.4.7,10.1,1.1.8.1,2.2.9,4,2h0l1.7-.4c-1.2-.8-2.2-1.6-2.8-2.3-2.8-3.4-.6-7-6.5-8.9-.8-.3-1.5-.4-2.2-.4-1.6,0-2.6.4-3.9.3h-.8c-3-.5-6-1.1-9-1.7l-.2,1.1c.9.2,1.6.3,2.1.4h-.1ZM115.93,194.8c1.4-2.2,11-1.8,4.8,4.3-4.5,4.5-6.3-2-4.8-4.3Z"/><path class="cls-2" d="M126.03,44.7c-.4,4.4-1.7,6.9-3.3,8.3,1.6-1.4,2.9-3.9,3.3-8.3,1.4-14.8-5-22.5-14.9-32.4h0c-2.3-2.3-5.3-5.2-8.7-5.1h0c3.4,0,6.5,2.8,8.7,5.1,9.9,9.9,16.3,17.5,14.9,32.4Z"/><path class="cls-2" d="M123.03,37.4c.5,5.3,0,14.5-5.4,17.1h0l.4.8h0c1.4-.5,3.2-.9,4.8-2.3,1.6-1.4,2.9-3.9,3.3-8.3,1.4-14.8-5-22.5-14.9-32.4-2.3-2.3-5.3-5.2-8.7-5.1,8.3,10.2,19.3,15.8,20.5,30.2Z"/><path class="cls-2" d="M98.43,65.5c3.1-1.3,1.9-3.8,3.1-8.3,2.2-7.6,11.2-1.7,13.5-2,.9,0,1.7-.3,2.5-.7h0c-.7.3-1.5.5-2.5.6-2.3.2-11.3-5.6-13.5,2-1.3,4.5,0,7-3.2,8.3h0l.1.1Z"/><path class="cls-2" d="M115.13,55.2c-2.3.2-11.3-5.6-13.5,2-1.3,4.5,0,7-3.1,8.3l.4,1c1.1-.4,2.2-.8,3.1-.7,3.4,0,4.4,3.7,10,.7,1.7-.9,2.6-2,3.1-3.1,1.1-2.5,0-5.3.9-6.7h0c.4-.6,1.1-.9,2.1-1.2l-.4-.8h0c-.7.4-1.5.6-2.5.7v-.2h-.1ZM109.93,64.4c-7.1,2.1-7.9-7.5-3.7-8.9,6.1-2,10.4,6.9,3.7,8.9Z"/><path class="cls-2" d="M115.03,63.3c1.1-2.5,0-5.3.9-6.7h0c-.9,1.5,0,4.2-.9,6.7Z"/><polygon class="cls-2" points="117.53 54.5 117.53 54.5 118.03 55.3 118.03 55.3 117.53 54.5"/><path class="cls-2" d="M53.03,177.7c5.2,1.6,10.5,3.1,11,3.5,2.5,1.9,2.3,7,3.7,9.6,2.5,4.8,9,5.2,13.8,3.7,3.6-1.1,4.5-5.6,6.6-5.8,2.7-.2,12.8,1.2,17.9,2.2l.2-1.1c-5.8-1.1-11.6-2.2-17.5-3.2.5-9.8-7.7-16.6-17.4-13.5-.8.2-1.6.1-2.2.5-.4.3-.8.7-1.2,1-.3.3-.5.6-.9.9-1.4,1.4-2.3,3-4.5,3.1h-.9c-.3,0-.6-.1-.9-.2-.7-.1-1.5-.3-2.4-.6-.7-.2-1.4-.4-2.1-.6-.2,0-.5-.1-.7-.2-.8-.2-1.5-.4-2.3-.7l-1,.9.9.4-.1.1ZM73.93,175.8c14.8-3.3,13.2,19.5,1.1,17-5.2-1.1-9.6-15.1-1.1-17Z"/><path class="cls-2" d="M67.93,78.1c2-2,3.9-22.3,14.3-19.4,4.2,1.2,4.9,8.4,10.3,8,2.9-.2,4.8-.6,5.9-1.1h0c-1.2.5-3,.9-5.9,1.1-5.4.4-6.1-6.8-10.3-8-10.4-2.9-12.3,17.4-14.3,19.4s-.9.8-1.6,1.1h0c.6-.3,1.2-.7,1.6-1.1Z"/><path class="cls-2" d="M98.83,66.5h0l-.4-1h0c-1.2.5-3,.9-5.9,1.1-5.4.4-6.1-6.8-10.3-8-10.4-2.9-12.3,17.4-14.3,19.4s-.9.7-1.6,1.1l.6,1.1h.3c6.9,4.8,11.3,9.6,20.2,4.7.8-.5,1.5-1,2.1-1.5,5.6-5.2.8-13.9,1.6-14.7h0c2.4.3,5.2-1.3,7.7-2.2h0ZM78.43,84.1c-9.6-1.3-7.3-13.7-3.5-19.3,15.5-4.6,20.6,21.5,3.5,19.3Z"/><path class="cls-2" d="M89.53,83.5c5.6-5.2.9-13.8,1.6-14.7h0c-.8.9,4,9.5-1.6,14.7Z"/><polygon class="cls-2" points="98.83 66.5 98.43 65.5 98.43 65.5 98.83 66.5 98.83 66.5"/><path class="cls-2" d="M31.73,113.8l2.2.6c.8-4.1,6.3-14.1,9.8-17.5.5-.5,1-.8,1.4-1,2.7-1.2,7-.3,9.1-2.8.5-.6.9-1.3,1.1-2.3l-1.6-3.6h0l13.3-6.9h0l-.6-1.1h0c-2.8,1.4-7.6,2.3-10,3.5-1.3.7-3,3.4-3.7,3.4-1,0-4.6-5.3-9.3-2-1.3.9-1.9,1.9-2.2,2.8-.9,2.9,1.6,5.8,1.5,7v.2c-.7,1.9-8.8,10.2-10.8,16.1-.5,1.4-.6,2.7-.2,3.7h0v-.1ZM45.13,85.3c.7-.4,3-.4,3.8,0h0c.5.3,3.7,6.3,3.3,6.9-2.9,1-5.3,1.4-8.1,0l1-6.9h0Z"/><path class="cls-2" d="M43.43,84.1c4.7-3.4,8.3,2,9.3,2s2.4-2.7,3.7-3.4c2.4-1.2,7.2-2.1,10-3.5h0c-2.8,1.4-7.6,2.3-10,3.5-1.3.7-3,3.4-3.6,3.4-1,0-4.6-5.3-9.3-2-1.3.9-1.9,1.9-2.2,2.8.3-1,1-1.9,2.2-2.8h-.1Z"/><path class="cls-2" d="M33.83,114.4h0c.8-4.1,6.2-14.1,9.8-17.5-3.5,3.4-9,13.4-9.8,17.5Z"/><path class="cls-2" d="M31.83,110.2c2-5.9,10.1-14.2,10.8-16.1-.7,2-8.8,10.3-10.8,16.1Z"/><path class="cls-2" d="M55.33,90.8c-.2,1-.6,1.8-1.1,2.3.5-.6.9-1.3,1.1-2.4l-1.6-3.6h0l1.6,3.6h0v.1Z"/><rect class="cls-2" x="66.73" y="79.1" height="1.3"/><path class="cls-2" d="M41.33,163.2c-2-2.2-5.4-2.3-7.4-4.9-2-2.6-6.4-12-6.4-15.2s.5-4.3,1.3-5.2c-.8.9-1.3,2.3-1.3,5.2,0,3.2,4.3,12.7,6.4,15.2"/><path class="cls-2" d="M32.03,166.4c-1,2,.3,4.3,5.8,4.9h0c-5.5-.6-6.8-2.9-5.8-4.9Z"/><path class="cls-2" d="M40.33,163.6c.5,0,1.1.3,1.6.5h0c-.5-.2-1.1-.4-1.6-.5h0Z"/><path class="cls-2" d="M31.73,113.9h0c-12.9-4.9-21.7,3.8-21.7,12.3,0-8.6,8.8-17.2,21.7-12.3Z"/><path class="cls-2" d="M33.83,115.4c.2,4.5,11.9,8.5,4,16.7,7.8-8.2-3.8-12.2-4-16.7v-1h0v1Z"/><path class="cls-2" d="M42.03,165.4l.6-1.4h-.3c-.5-.2-1.1-.4-1.6-.5l-2.5,7.6h0c-5.5-.5-6.8-2.9-5.8-4.9s6-2.1,8.3-2.8h0c.4-.2.7-.3,1-.3h0c-.3,0-.6.2-1,.3.4-.2.7-.3,1-.3-2-2.2-5.4-2.3-7.4-4.9-2-2.6-6.4-12-6.4-15.2s.5-4.3,1.3-5.2c1.3-1.5,3.6-1.3,5.9-3.1,1.3-.9,2.3-1.8,3.1-2.7,7.8-8.2-3.8-12.2-4-16.7v-1h0l-2.2-.6h0c-12.9-4.9-21.7,3.7-21.7,12.3s4.6,12.4,15.6,13.3h0c-.5,1.2-.7,2.5-.8,3.7-.2,6.5,5.4,12.6,8,18.4v.4c0,1.9-3.7,1.3-4.2,4.7v1.3c.3,6.1,10.1,5.3,14.7,6.6h0c1.2.5,5.1,1.6,9.1,2.9,1.6.7,9.9,3.1.3-1.2h0c-3.8-1.2-7.4-2.4-8.1-3-2.3-1.8.5-10.6-3.2-10M13.83,122.8c.7-3.2,6.6-8.4,9.8-8.8,1.5-.2,9.4,5.1,10.5,6.5,12.6,15-25,22.9-20.3,2.3Z"/><path class="cls-2" d="M32.73,162c0,1.9-3.7,1.3-4.2,4.7v1.3-1.3c.5-3.5,4.1-2.8,4.2-4.7Z"/><path class="cls-2" d="M25.53,139.5c-.5,1.2-.7,2.5-.8,3.7,0-1.2.3-2.4.8-3.7h0Z"/><path class="cls-2" d="M41.13,164.1c-.2-.3.7-.4.5-.6l-.3-.3c-.3,0-.2.2-.6.3h-.4c.5,0,.3.4.8.6Z"/><path class="cls-2" d="M41.33,163.2h0c.2.2.4.5.6.8h0c-.2-.3-.4-.6-.6-.8h0Z"/><path class="cls-2" d="M41.33,163.2c-.3,0-.6.2-1,.3h0c.4-.2.7-.3,1-.3h0Z"/><path class="cls-1" d="M257.12,273.03c.6.8,1.6,1.5,2.9,1.7h0c4.2.6,3.5-2.2,1.7-4.3-1.5.9-3,1.8-4.5,2.6h-.1Z"/><path class="cls-1" d="M261.84,271.83h0c-.9-.5-1.8-.6-2.5-.1h0c-.7.5-1,1.3-.9,2.1.8-.4,2-1.1,3.4-2h0Z"/><path class="cls-1" d="M205.93,286.5c.6-.2,1.3-.4,1.9-.7.2,0,.3-.2.5-.2-.9,0-1.5.3-1.9.5s-.4.3-.5.5h0v-.1Z"/><path class="cls-2" d="M396.23,160h0c-18.6,16.5-42.8,13.6-59.4,33.9-2.9,3.5-9.2,15.2-12.1,17.1-1.5.9-4.7,0-6,2-2.9,4.4.9,7.2,1.1,9.6,1.5-.4,4.1.8,5.7-1,2.1-3.1,1.1-6.5,2.3-10,1.8-5,11.5-17.7,15.6-21.3,11.8-10.4,22.2-10.8,35.6-16.7,11.8-5.3,23.1-12.3,26-25.8l-8.7,12.3h-.1v-.1ZM323.93,219.9v.4c-.1.4-.4.6-.7.6-2.3.1-7.7-7.5,1.9-7.5l-1,6.6h-.2v-.1Z"/><path class="cls-2" d="M323.13,220.8c-2.3.1-7.7-7.5,1.9-7.5-9.5,0-4.1,7.7-1.9,7.5Z"/><path class="cls-2" d="M287.04,235.4h0c-6,4-5.1,11.7-2.4,17.4l-.6,1c-1.4,1.4-2.9,2.7-4.5,3.8-2,1.4-12.8,8.5-19,12.3.7.4,1.4.9,2,1.5h0c7.7-4.5,15.1-9.5,22.7-14.2,5.2-3.2,4.8-1.1,10.3-2.2,9.5-1.9,9.6-11.4,5.9-18.7l1.6-1.4c1.2.1,2.3.8,3.5.4.7-.3,11.8-9.5,12.4-10.2.7-.8,1-1.5,1-2.6-5.7,1.5-16.3,11.5-19.1,12.1-3.2.7-6-4.3-13.6.8h-.2,0ZM300.43,248.2c-.8,1.7-2.3,3.1-4.9,3.8h0c-1.5.4-2.8.5-3.9.5-10.7-.3-7.9-17.1,3.4-16.7.4,0,.8,0,1.2.1l.82.16,1.65.72,1.63,1.21c.8,3.4,1.4,7.4,0,10.3h0l.1-.1Z"/><path class="cls-2" d="M295.54,252h0c2.6-.7,4.1-2.1,4.9-3.8-.8,1.7-2.3,3.1-4.9,3.8Z"/><path class="cls-2" d="M295.04,235.7c-11.4-.3-14.2,16.4-3.4,16.7-10.7-.3-7.9-17.1,3.4-16.7Z"/><path class="cls-2" d="M201.93,286.8h0c-1,1.1-2.4,2.2-4,3-2.2,1.1-4.1,1.3-5.7,1.1-8.8-1.5-9.1-19.6,2.1-20.1h1c.9,0,1.5.1,2,.3h0c.3-.6.8-1.2,1.2-1.7-16.2-9.2-23.8,27.8-.2,24,5.2-.8,5.5-4.5,7.6-6.7-1.5.4-2.8.5-4,.2h0v-.1Z"/><path class="cls-2" d="M197.83,289.7c-2.2,1.1-4.1,1.3-5.7,1.1,1.6.3,3.5,0,5.7-1.1,1.6-.8,3-1.8,4-3-1,1.1-2.4,2.2-4,3Z"/><path class="cls-2" d="M194.23,270.6h1-1Z"/><path class="cls-2" d="M256.93,271.97c-.4.2-.7.4-.9.4h0c-2.6.6-6.7-3.2-10.1-1.5l-1.3,10.5c-1.8,5.4-23.9,3.7-33.6,2.2h0s-.2.2-.3.3c-.2.2-.4.4-.7.5-.2.2-.5.3-.7.5s-.5.3-.7.5c-.1,0-.2.2-.4.2,6.1-.6,22.4,2.1,27.8,1.6,6-.6,8-3.5,11.7-4.5,4.9-1.3,9.3,2.2,8.5-7.6.5-.3,1-.6,1.5-.9h0c-.5-.7-.8-1.4-.8-2.2h0ZM250.63,279.77c-.6,0-1.2-.3-1.7-.6-2.1-1.3-2.7-4.2-1.1-5.4,1-.7,2.5,0,3.7,1,2.4,2,3.8,5.7-.9,5Z"/><path class="cls-2" d="M248.03,273.8c1-.7,2.5,0,3.7,1-1.2-1.1-2.7-1.7-3.7-1-1.6,1.1-1,4.1,1.1,5.4-2.1-1.3-2.7-4.2-1.1-5.4Z"/><path class="cls-2" d="M260.54,269.9h0c-1.4.9-2.6,1.6-3.4,2h0c.8-.4,2-1.1,3.4-2Z"/><path class="cls-2" d="M260.54,269.9h0c.7.4,1.4.9,2,1.5h0c-.6-.6-1.3-1.2-2-1.5Z"/><path class="cls-2" d="M257.13,271.9c0,.7.3,1.5.8,2.2h0c-.5-.7-.8-1.4-.8-2.2h0Z"/><path class="cls-2" d="M209.48,285.5c.3-.1.5-.3.7-.5.3-.2.5-.3.7-.5s.5-.4.7-.5c0,0,.2-.2.3-.3-1.5-.2-2.7-.4-3.5-.6h0l-1.6-1.5c-.9-4.2-2.6-8.5-6.3-11.2-.5-.4-1.27-.7-1.77-.9-.5.5-.63,1.1-.93,1.7.6.2.9.5,1,.9.4,1.1-.7,2.5-.4,2.9,2.7.7,4.5,2,5.4,3.6,1.6,2.6,1,5.9-1.4,8.5,1.2.2,2.5.2,4-.2h0c.2-.2.4-.3.6-.5.4-.3,1.1-.4,2-.5h0c.1,0,.3-.2.4-.2v-.2h.1Z"/><path class="cls-2" d="M206.43,286c-.2.2-.4.3-.6.5h0c.2-.2.3-.3.5-.5.4-.3,1-.4,1.9-.5h0c-.9,0-1.6.3-2,.5h.2Z"/><path class="cls-2" d="M203.33,278.2c-1-1.5-2.8-2.8-5.4-3.6h0c2.7.7,4.5,2,5.4,3.5h0v.1Z"/><path class="cls-2" d="M198.23,271.8c-.1-.4-.5-.7-1-.9h0c.6.2.9.5,1.1.9h-.1Z"/><path class="cls-2" d="M201.93,286.7h0c1.2.2,2.5.2,4-.2h0c-1.5.4-2.8.5-4,.2Z"/><path class="cls-2" d="M208.43,285.5h0c.1,0,.2-.2.4-.2-.1,0-.3.2-.4.2Z"/></svg>