<?xml version="1.0" encoding="UTF-8"?><svg id="Layer_3" xmlns="http://www.w3.org/2000/svg" width="415" height="300.9" viewBox="0 0 415 300.9"><defs><style>.cls-1,.cls-2{fill:none;}.cls-3{stroke-miterlimit:10;stroke-width:2px;}.cls-3,.cls-4,.cls-2{stroke:#000;}.cls-4,.cls-2{stroke-miterlimit:10;stroke-width:2px;}.cls-5{opacity:.07;}</style></defs><g class="cls-5"><path class="cls-2" d="M35,114.5h0l-2.2-.6c-.4-1-.3-2.3.2-3.7-.5,1.4-.6,2.7-.2,3.7h0l2.2.6Z"/><path class="cls-2" d="M155.5,210c-1.7.9-3.4,2.6-4.8,5.4h0c1.4-2.8,3.1-4.5,4.8-5.4Z"/><path class="cls-2" d="M11.1,126.2c0,6.2,4.6,12.5,15.6,13.3h0c-11-.9-15.6-7.1-15.6-13.3Z"/><path class="cls-2" d="M33.9,161.7c-2.6-5.8-8.2-11.9-8-18.4-.2,6.5,5.4,12.6,8,18.4v.4-.4Z"/><path class="cls-2" d="M113.1,66.5c-5.6,3-6.6-.6-10-.7-.9,0-2,.3-3.1.7h0c-2.5,1-5.3,2.5-7.7,2.2h0c2.4.3,5.2-1.3,7.7-2.2,1.1-.4,2.2-.8,3.1-.8,3.4,0,4.4,3.7,10,.7,1.7-.9,2.6-2,3.1-3.1-.5,1.1-1.4,2.2-3.1,3.1v.1Z"/><path class="cls-2" d="M42.4,87c-.9,2.9,1.6,5.8,1.5,7v.2-.2c0-1.2-2.4-4.1-1.5-7Z"/><path class="cls-2" d="M119.2,55.4c-.9.3-1.7.6-2.1,1.2h0c.4-.6,1.1-.9,2.1-1.2,1.4-.5,3.2-.9,4.8-2.4-1.6,1.4-3.4,1.9-4.8,2.3h0v.1Z"/><path class="cls-2" d="M118.7,54.6c5.6-2.6,5.9-11.8,5.4-17.1-1.2-14.4-12.3-20-20.5-30.2h0c8.3,10.2,19.3,15.8,20.5,30.2.5,5.3.1,14.5-5.4,17.1h0Z"/><path class="cls-2" d="M147.7,269c-4.1-5.1,0-8.3,0-13.6h0c0,5.3-4.1,8.5,0,13.6.7.8,17.2,10.1,18.5,10.5,4.7,1.6,11.5,1.5,16.4,1.5h0c-4.9,0-11.8.1-16.4-1.5-1.3-.5-17.8-9.7-18.5-10.5Z"/><path class="cls-2" d="M120.6,191.2c-1.6,0-2.6.4-3.9.3,1.3,0,2.4-.4,3.9-.3Z"/><path class="cls-1" d="M195.4,270.7h0c-11.2.5-10.9,18.6-2.1,20.1-8.8-1.5-9.1-19.6,2.1-20.1Z"/><path class="cls-1" d="M198.4,271c-.5-.2-1.1-.3-2-.3.9,0,1.5.1,2,.3h0Z"/><path class="cls-2" d="M53.6,177.4c-4-1.2-7.9-2.4-9.1-2.8-4.6-1.3-14.4-.5-14.7-6.6.3,6.2,10.1,5.3,14.7,6.6,1.2.4,5.1,1.5,9.1,2.8,5.2,1.6,10.6,3.3,11.1,3.7,2.5,1.9,2.4,7,3.7,9.6,2.5,4.9,9,5.2,13.8,3.7,3.6-1.1,4.5-5.6,6.6-5.8,2.7-.2,12.8,1.2,17.9,2.2.9.2,1.6.3,2.2.4,9.2,2.1,5.4,2.3,7.6,8.8,2.2,6.7,7.4.7,10.1,1.1.8.1,2.2.9,4,2,6.2,4.1,16.6,13,18.3,15.8,1.8,2.8,1.5,5.4,4,8.3,4.3,4.9,9.1,1.2,10.2,9.2,1.3,9-5.3,12.9-7.1,20.9h0l1.3.9-.1.1h0l-1.3-.9c1.8-8,8.4-11.9,7.1-21-1.2-8.1-5.9-4.3-10.2-9.2-2.5-2.9-2.2-5.5-4-8.3s-12.1-11.7-18.3-15.8h0c-1.7-1.1-3.1-1.9-4-2-2.7-.4-7.9,5.6-10.1-1.1-2.1-6.5,1.6-6.7-7.6-8.8-.5-.1-1.2-.3-2.1-.4l.2-1.1h0l-.2,1.1c-5.1-.9-15.2-2.4-17.9-2.2-2.1.2-3,4.7-6.6,5.8-4.8,1.5-11.3,1.1-13.8-3.7-1.3-2.6-1.2-7.8-3.7-9.6-.5-.4-5.9-2.1-11.1-3.7"/><path class="cls-1" d="M212.1,283.8c-.2.2-.4.4-.7.5.2-.2.5-.4.7-.5Z"/><path class="cls-2" d="M178.7,279.3h0c-9.5-1.4-16.2-1.9-23.7-9.1h0c7.6,7.2,14.3,7.7,23.8,9.1h-.1Z"/><path class="cls-1" d="M199,274.8h0c-.2-.4.9-1.9.4-2.9.4,1.1-.7,2.5-.4,2.9Z"/><path class="cls-1" d="M203.1,286.8h0c2.4-2.7,3-6,1.4-8.5,1.6,2.6,1,5.9-1.4,8.5Z"/><path class="cls-1" d="M196.8,276.8c0,4.6,2.1,9.1,6.2,10h0c-4.1-.9-6.3-5.4-6.2-10Z"/><path class="cls-2" d="M61.4,178.3c.3,0,.6.1.9.2-.3,0-.6-.1-.9-.2Z"/><path class="cls-1" d="M324.3,220.9c.3,0,.6-.2.7-.6-.1.4-.4.6-.7.6Z"/><path class="cls-1" d="M297.4,240h0l4.1-2c.8,3.4,1.4,7.4,0,10.3,1.3-2.9.7-6.8,0-10.3l-4.1,2.1v-.1Z"/><path class="cls-2" d="M68.9,174.9c.3-.3.7-.6,1.1-.9-.4.3-.7.6-1.1.9Z"/><path class="cls-2" d="M41.5,163.7h0c-3.9-.8-7.2.8-8.3,2.8,1-2,4.4-3.6,8.3-2.8h0c.5,0,1.1.2,1.6.4h0c-.5-.2-1.1-.4-1.6-.5v.1Z"/><path class="cls-2" d="M68,175.8c-1.4,1.4-2.6,2.7-4.8,2.8h-.5.5c2.2,0,3.4-1.4,4.8-2.8Z"/><path class="cls-2" d="M41.5,163.7c-3.9-.8-7.2.8-8.3,2.8-1,2,.3,4.3,5.8,4.9l2.5-7.6h0v-.1Z"/><path class="cls-2" d="M45.7,173.3c.7.5,4.3,1.8,8.1,3h0c-3.8-1.2-7.4-2.4-8.1-3-2.3-1.8.5-10.6-3.2-10h0c3.7-.6.9,8.3,3.2,10Z"/><path class="cls-1" d="M210.7,284.9c-.2.2-.5.3-.7.5.3-.1.5-.3.7-.5Z"/><path class="cls-1" d="M253,274.8c2.4,2,3.8,5.7-.9,5-.6,0-1.2-.3-1.7-.6.5.3,1.1.5,1.7.6,4.7.7,3.3-3,.9-5Z"/><path class="cls-2" d="M44.8,97c.5-.5,1-.8,1.4-1,2.7-1.2,7-.3,9.2-2.8-2.2,2.5-6.4,1.6-9.1,2.8-.4.2-.9.5-1.4,1h-.1Z"/><path class="cls-2" d="M68.4,80.2h-.3c0,.1-13.3,7-13.3,7h0l13.3-6.9h.3c6.9,4.8,11.3,9.6,20.2,4.7.8-.5,1.5-1,2.1-1.5-.6.5-1.3,1-2.1,1.5-8.8,4.9-13.3,0-20.2-4.8Z"/><path class="cls-1" d="M292.7,252.6c1.2,0,2.5-.1,3.9-.5h0c-1.5.4-2.8.5-3.9.5Z"/><path class="cls-1" d="M296.2,235.8c.4,0,.8,0,1.2.1-.4,0-.8,0-1.2-.1Z"/><path class="cls-2" d="M30,138c1.3-1.5,3.6-1.3,5.9-3.1,1.3-.9,2.3-1.8,3.1-2.7-.8.8-1.8,1.7-3.1,2.7-2.4,1.8-4.6,1.6-5.9,3.1Z"/><path class="cls-4" d="M155.9,257.5l-8.2-2.1h0l8.2,2.1h0Z"/><path d="M178.7,279.3h0c1,.2,4.1.3,3.9,1.7h0c.2-1.4-2.8-1.6-3.9-1.7Z"/><path class="cls-4" d="M179.7,279.3h0c-9.5-1.4-16.2-1.9-23.8-9.1h0c2.6-4,1-7.7,2.2-11.8l-1.3-.9h0l-8.2-2.1c0,5.3-4.1,8.5,0,13.6.7.8,17.2,10.1,18.5,10.5,4.6,1.6,11.5,1.5,16.4,1.5.2-1.4-2.8-1.6-3.9-1.7h.1ZM151.3,267.7c-2.8-.5-1.7-8.9,1-10.2l3.5,7.7-4.5,2.6v-.1Z"/><path class="cls-4" d="M155,270.2c2.6-4,1-7.7,2.2-11.8h0c-1.2,4.1.4,7.8-2.2,11.8h0Z"/><path class="cls-4" d="M139.87,207.88c-1.9-1.4-5.6-3.3-8.3-5l-1.7.4c6.2,4.1,16.6,13,18.3,15.8,1.8,2.8,1.5,5.4,4,8.3,4.3,4.9,9.1,1.2,10.2,9.2,1.3,9-5.3,12.9-7.1,21l1.3.9c0-.3.2-.5.3-.8,3.5-9.2,13.6-15.1,5.7-27.1h0c12.8-6.7,1.7-25.4-7.7-20.5-1.7.9-3.4,2.6-4.8,5.4h0c-2.1,1.5-8.4-6.2-10.2-7.5v-.1ZM153.37,214.98c5.8-8,12.3.2,13.1,7.1,0,.9-.5,1.7-1.1,2.4-7.9,9.5-18-1.1-12-9.5Z"/><path class="cls-4" d="M157.5,257.5c-.1.3-.2.5-.3.8h0c0-.3.2-.5.3-.8,3.5-9.2,13.6-15.1,5.7-27.1h0c7.9,12-2.2,17.9-5.7,27.1Z"/><path class="cls-4" d="M163.2,230.4h0c12.9-6.7,1.7-25.4-7.7-20.5,9.3-4.9,20.5,13.7,7.7,20.5Z"/><path class="cls-4" d="M133.92,204.44h0c2.45,1.48,5.71,3.13,7.53,4.35,1.72,1.22,7.44,7.83,9.25,6.53h0c-1.9,1.22-7.62-5.4-9.25-6.53-1.81-1.31-5.08-2.87-7.53-4.35h0Z"/><path class="cls-4" d="M116.7,191.5h-.8c-3-.5-6-1.1-9-1.7h0c3,.6,6,1.1,9,1.7h.8Z"/><path class="cls-4" d="M126.47,200.58c.6.7,1.6,1.5,2.8,2.3h0c-1.2-.8-2.2-1.6-2.8-2.3-2.8-3.4-.6-7-6.5-8.9-.8-.3-1.5-.4-2.2-.4.6,0,1.3.2,2.2.4,5.9,1.9,3.8,5.5,6.5,8.9Z"/><path class="cls-4" d="M107.84,191.15c9.2,2.1,5.5,2.3,7.6,8.8,2.2,6.7,7.4.7,10.1,1.1.8.1,2.2.9,4,2h0l1.7-.4c-1.2-.8-2.2-1.6-2.8-2.3-2.8-3.4-.6-7-6.5-8.9-.8-.3-1.5-.4-2.2-.4-1.6,0-2.6.4-3.9.3h-.8c-3-.5-6-1.1-9-1.7l-.2,1.1c.9.2,1.6.3,2.1.4h-.1ZM117.14,194.95c1.4-2.2,11-1.8,4.8,4.3-4.5,4.5-6.3-2-4.8-4.3Z"/><path class="cls-4" d="M127.2,44.8c-.4,4.4-1.7,6.9-3.3,8.3,1.6-1.4,2.9-3.9,3.3-8.3,1.4-14.8-5-22.5-14.9-32.4h0c-2.3-2.3-5.3-5.2-8.7-5.1h0c3.4-.1,6.5,2.8,8.7,5.1,9.9,9.9,16.3,17.5,14.9,32.4Z"/><path class="cls-4" d="M124.2,37.5c.5,5.3.1,14.5-5.4,17.1h0l.4.8h0c1.4-.5,3.2-.9,4.8-2.3,1.6-1.4,2.9-3.9,3.3-8.3,1.4-14.8-5-22.5-14.9-32.4-2.3-2.3-5.3-5.2-8.7-5.1,8.3,10.2,19.3,15.8,20.5,30.2Z"/><path class="cls-4" d="M99.6,65.6c3.1-1.3,1.9-3.8,3.1-8.3,2.2-7.6,11.2-1.7,13.5-2,.9,0,1.7-.3,2.5-.7h0c-.7.3-1.5.5-2.5.6-2.3.2-11.3-5.6-13.5,2-1.3,4.5,0,7-3.2,8.3h0l.1.1Z"/><path class="cls-4" d="M116.3,55.3c-2.3.2-11.3-5.6-13.5,2-1.3,4.5,0,7-3.1,8.3l.4,1c1.1-.4,2.2-.8,3.1-.7,3.4,0,4.4,3.7,10,.7,1.7-.9,2.6-2,3.1-3.1,1.1-2.5,0-5.3.9-6.7h0c.4-.6,1.1-.9,2.1-1.2l-.4-.8h0c-.7.4-1.5.6-2.5.7l-.1-.2ZM111.1,64.5c-7.1,2.1-7.9-7.5-3.7-8.9,6.1-2,10.4,6.9,3.7,8.9Z"/><path class="cls-4" d="M116.2,63.4c1.1-2.5,0-5.3.9-6.7h0c-.9,1.5.1,4.2-.9,6.7Z"/><polygon class="cls-4" points="118.7 54.6 118.7 54.6 119.2 55.4 119.2 55.4 118.7 54.6"/><path class="cls-4" d="M54.17,177.77c5.2,1.6,10.52,3.12,11.02,3.52,2.5,1.9,2.3,7,3.7,9.6,2.5,4.8,9,5.2,13.8,3.7,3.6-1.1,4.5-5.6,6.6-5.8,2.7-.2,12.8,1.2,17.9,2.2l.2-1.1c-5.8-1.1-11.6-2.2-17.5-3.2.5-9.8-7.7-16.6-17.4-13.5-.8.2-1.58.12-2.18.52-.4.3-.85.74-1.25,1.04-.3.3-.53.62-.93.92-1.4,1.4-2.34,3.02-4.54,3.12h-.9c-.3,0-.6-.1-.9-.2-.7-.1-1.5-.3-2.4-.6-.7-.2-1.4-.4-2.1-.6-.2,0-.5-.1-.7-.2-.8-.2-1.5-.4-2.3-.7l-1,.88.88.4ZM75.09,175.89c14.8-3.3,13.2,19.5,1.1,17-5.2-1.1-9.6-15.1-1.1-17Z"/><path class="cls-4" d="M69.1,78.2c2-2,3.9-22.3,14.3-19.4,4.2,1.2,4.9,8.4,10.3,8,2.9-.2,4.8-.6,5.9-1.1h0c-1.2.5-3,.9-5.9,1.1-5.4.4-6.1-6.8-10.3-8-10.4-2.9-12.3,17.4-14.3,19.4-.4.4-.9.8-1.6,1.1h0c.6-.3,1.2-.7,1.6-1.1Z"/><path class="cls-4" d="M100,66.6h0l-.4-1h0c-1.2.5-3,.9-5.9,1.1-5.4.4-6.1-6.8-10.3-8-10.4-2.9-12.3,17.4-14.3,19.4-.4.4-.9.7-1.6,1.1l.6,1.1h.3c6.9,4.8,11.3,9.6,20.2,4.7.8-.5,1.5-1,2.1-1.5,5.6-5.2.8-13.9,1.6-14.7h0c2.4.3,5.2-1.3,7.7-2.2h0ZM79.6,84.2c-9.6-1.3-7.3-13.7-3.5-19.3,15.5-4.6,20.6,21.5,3.5,19.3Z"/><path class="cls-4" d="M90.7,83.6c5.6-5.2.9-13.8,1.6-14.7h0c-.8.9,4,9.5-1.6,14.7Z"/><polygon class="cls-4" points="100 66.6 99.6 65.6 99.6 65.6 100 66.6 100 66.6"/><path class="cls-4" d="M32.9,113.9l2.2.6c.8-4.1,6.3-14.1,9.8-17.5.5-.5,1-.8,1.4-1,2.7-1.2,7-.3,9.1-2.8.5-.6.9-1.3,1.1-2.3l-1.6-3.6h0l13.3-6.9h0l-.6-1.1h0c-2.8,1.4-7.6,2.3-10,3.5-1.3.7-3,3.4-3.7,3.4-1,0-4.6-5.3-9.3-2-1.3.9-1.9,1.9-2.2,2.8-.9,2.9,1.6,5.8,1.5,7v.2c-.7,1.9-8.8,10.2-10.8,16.1-.5,1.4-.6,2.7-.2,3.7v-.1ZM46.3,85.4c.7-.4,3-.4,3.8,0h0c.5.3,3.7,6.3,3.3,6.9-2.9,1-5.3,1.4-8.1-.1l1-6.9v.1Z"/><path class="cls-4" d="M44.6,84.2c4.7-3.4,8.3,2,9.3,2,.7,0,2.4-2.7,3.7-3.4,2.4-1.2,7.2-2.1,10-3.5h0c-2.8,1.4-7.6,2.3-10,3.5-1.3.7-3,3.4-3.6,3.4-1,0-4.6-5.3-9.3-2-1.3.9-1.9,1.9-2.2,2.8.3-1,1-1.9,2.2-2.8h-.1Z"/><path class="cls-4" d="M35,114.5h0c.8-4.1,6.2-14.1,9.8-17.5-3.5,3.4-9,13.4-9.8,17.5Z"/><path class="cls-4" d="M33,110.3c2-5.9,10.1-14.2,10.8-16.1-.7,2-8.8,10.3-10.8,16.1Z"/><path class="cls-4" d="M56.5,90.9c-.2,1-.6,1.8-1.1,2.3.5-.6.9-1.3,1.1-2.4l-1.6-3.6h0l1.6,3.6v.1Z"/><rect class="cls-3" x="67.91" y="79.21" height="1.3"/><path class="cls-4" d="M42.5,163.3c-2-2.2-5.4-2.3-7.4-4.9-2-2.6-6.4-12-6.4-15.2,0-2.8.5-4.3,1.3-5.2-.8.9-1.3,2.3-1.3,5.2,0,3.2,4.3,12.7,6.4,15.2"/><path class="cls-4" d="M33.2,166.5c-1,2,.3,4.3,5.8,4.9h0c-5.5-.6-6.8-2.9-5.8-4.9Z"/><path class="cls-4" d="M41.5,163.7c.5,0,1.1.3,1.6.5h0c-.5-.2-1.1-.4-1.6-.5h0Z"/><path class="cls-4" d="M32.9,114h0c-12.9-4.9-21.7,3.8-21.7,12.3,0-8.6,8.8-17.2,21.7-12.3Z"/><path class="cls-4" d="M35,115.5c.2,4.5,11.9,8.5,4,16.7,7.8-8.2-3.8-12.2-4-16.7v-1h0c0,.4-.1.7,0,1Z"/><path class="cls-4" d="M43.24,165.48l.62-1.38-.32-.08v.18c-.5-.2-1.1-.4-1.6-.5l-2.5,7.6h0c-5.5-.5-6.8-2.9-5.8-4.9s5.96-2.05,8.3-2.8h0c.4-.2.7-.3,1-.3h0c-.3,0-.6.2-1,.3.4-.2.7-.3,1-.3-2-2.2-5.4-2.3-7.4-4.9-2-2.6-6.4-12-6.4-15.2,0-2.8.5-4.3,1.3-5.2,1.3-1.5,3.6-1.3,5.9-3.1,1.3-.9,2.3-1.8,3.1-2.7,7.8-8.2-3.8-12.2-4-16.7v-1h0l-2.2-.6h0c-12.9-4.9-21.7,3.7-21.7,12.3,0,6.2,4.6,12.4,15.6,13.3h0c-.5,1.2-.7,2.5-.8,3.7-.2,6.5,5.4,12.6,8,18.4v.4c-.1,1.9-3.7,1.3-4.2,4.7v1.3c.3,6.1,10.1,5.3,14.7,6.6v.1c1.2.4,5.1,1.5,9.1,2.8,1.63.68,9.86,3.13.3-1.2h0c-3.8-1.2-7.4-2.4-8.1-3-2.3-1.8.5-10.6-3.2-10M15.04,122.9c.7-3.2,6.6-8.4,9.8-8.8,1.5-.2,9.4,5.1,10.5,6.5,12.6,15-25,22.9-20.3,2.3Z"/><path class="cls-4" d="M33.9,162.1c-.1,1.9-3.7,1.3-4.2,4.7v1.3-1.3c.5-3.5,4.1-2.8,4.2-4.7Z"/><path class="cls-4" d="M26.7,139.6c-.5,1.2-.7,2.5-.8,3.7,0-1.2.3-2.4.8-3.7h0Z"/><path class="cls-4" d="M42.3,164.2c-.2-.3.65-.4.45-.6l-.25-.3c-.3,0-.2.2-.6.3h-.4c.5,0,.3.4.8.6Z"/><path class="cls-4" d="M42.5,163.3h0c.2.2.4.5.6.8h0c-.2-.3-.4-.6-.6-.8h0Z"/><path class="cls-4" d="M42.5,163.3c-.3,0-.6.2-1,.3h0c.4-.2.7-.3,1-.3h0Z"/><path class="cls-1" d="M259.1,274.2c.6.8,1.6,1.5,2.9,1.7h0c4.2.6,3.5-2.2,1.7-4.3-1.5.9-3,1.8-4.5,2.6h-.1Z"/><path class="cls-1" d="M261.7,270h0c-.9-.5-1.8-.6-2.5-.1h0c-.7.5-1,1.3-.9,2.1.8-.4,2-1.1,3.4-2h0Z"/><path class="cls-1" d="M207.1,286.6c.6-.2,1.3-.4,1.9-.7.2,0,.3-.2.5-.2-.9,0-1.5.3-1.9.5-.2.1-.4.3-.5.5v-.1Z"/><path class="cls-1" d="M324.3,220.9c.3,0,.6-.2.7-.6v-.4l1-6.6c-9.5,0-4.1,7.7-1.9,7.5l.2.1Z"/><path class="cls-4" d="M397.4,160.1h0c-18.6,16.5-42.8,13.6-59.4,33.9-2.9,3.5-9.2,15.2-12.1,17.1-1.5.9-4.7,0-6,2-2.9,4.4.9,7.2,1.1,9.6,1.5-.4,4.1.8,5.7-1,2.1-3.1,1.1-6.5,2.3-10,1.8-5,11.5-17.7,15.6-21.3,11.8-10.4,22.2-10.8,35.6-16.7,11.8-5.3,23.1-12.3,26-25.8l-8.7,12.3-.1-.1ZM325.1,220v.4c-.1.4-.4.6-.7.6-2.3.1-7.7-7.5,1.9-7.5l-1,6.6-.2-.1Z"/><path class="cls-4" d="M324.3,220.9c-2.3.1-7.7-7.5,1.9-7.5-9.5,0-4.1,7.7-1.9,7.5Z"/><path class="cls-1" d="M253,274.8c-1.2-1.1-2.7-1.7-3.7-1-1.6,1.1-1,4,1.1,5.4.5.3,1.1.5,1.7.6,4.7.7,3.3-3,.9-5Z"/><path class="cls-1" d="M301.5,238l-4.1,2h0v-4.1c-.4,0-.8,0-1.2-.1-11.3-.3-14.2,16.4-3.4,16.7,1.1,0,2.5-.1,3.9-.5h0c2.6-.7,4.1-2.1,4.9-3.8,1.3-2.9.7-6.8,0-10.3l-.1.1Z"/><path class="cls-1" d="M196.8,276.8c0-2.1.5-4.1,1.5-5.9-.5-.2-1.1-.3-2-.3h-1c-11.2.6-10.9,18.6-2.1,20.1,1.6.3,3.5,0,5.7-1.1,1.6-.8,3-1.8,4-3-4.1-.9-6.3-5.4-6.2-10l.1.2Z"/><path class="cls-1" d="M196.8,276.8c0-2.1.5-4.1,1.5-5.9h0c-1,1.7-1.5,3.8-1.5,5.9Z"/><path class="cls-4" d="M288.2,235.5h0c-6,4-5.1,11.7-2.4,17.4l-.6,1c-1.4,1.4-2.9,2.7-4.5,3.8-2,1.4-12.8,8.5-19,12.3.7.4,1.4.9,2,1.5h0c7.7-4.5,15.1-9.5,22.7-14.2,5.2-3.2,4.8-1.1,10.3-2.2,9.5-1.9,9.6-11.4,5.9-18.7l1.6-1.4c1.2.1,2.3.8,3.5.4.7-.3,11.8-9.5,12.4-10.2.7-.8,1-1.5,1-2.6-5.7,1.5-16.3,11.5-19.1,12.1-3.2.7-6-4.3-13.6.8h-.2ZM301.6,248.3c-.8,1.7-2.3,3.1-4.9,3.8h0c-1.5.4-2.8.5-3.9.5-10.7-.3-7.9-17.1,3.4-16.7.4,0,.8,0,1.2.1v4.1h0l4.1-2c.8,3.4,1.4,7.4,0,10.3l.1-.1Z"/><path class="cls-4" d="M296.7,252.1h0c2.6-.7,4.1-2.1,4.9-3.8-.8,1.7-2.3,3.1-4.9,3.8Z"/><path class="cls-4" d="M296.2,235.8c-11.4-.3-14.2,16.4-3.4,16.7-10.7-.3-7.9-17.1,3.4-16.7Z"/><path class="cls-4" d="M203.1,286.9h0c-1,1.1-2.4,2.2-4,3-2.2,1.1-4.1,1.3-5.7,1.1-8.8-1.5-9.1-19.6,2.1-20.1h1c.9,0,1.5.1,2,.3h0c.3-.6.8-1.2,1.2-1.7-16.2-9.2-23.8,27.8-.2,24,5.2-.8,5.5-4.5,7.6-6.7-1.5.4-2.8.5-4,.2v-.1Z"/><path class="cls-4" d="M199,289.8c-2.2,1.1-4.1,1.3-5.7,1.1,1.6.3,3.5,0,5.7-1.1,1.6-.8,3-1.8,4-3-1,1.1-2.4,2.2-4,3Z"/><path class="cls-4" d="M195.4,270.7h1-1Z"/><path class="cls-4" d="M258.3,272c-.4.2-.7.4-.9.4h0c-2.6.6-6.7-3.2-10.1-1.5l-1.3,10.5c-1.8,5.4-23.9,3.7-33.6,2.2h0s-.2.2-.3.3c-.2.2-.4.4-.7.5-.2.2-.5.3-.7.5s-.5.3-.7.5c-.1,0-.2.2-.4.2,6.1-.6,22.4,2.1,27.8,1.6,6-.6,8-3.5,11.7-4.5,4.9-1.3,9.3,2.2,8.5-7.6.5-.3,1-.6,1.5-.9h0c-.5-.7-.8-1.4-.8-2.2h0ZM252,279.8c-.6,0-1.2-.3-1.7-.6-2.1-1.3-2.7-4.2-1.1-5.4,1-.7,2.5,0,3.7,1,2.4,2,3.8,5.7-.9,5Z"/><path class="cls-4" d="M249.2,273.9c1-.7,2.5,0,3.7,1-1.2-1.1-2.7-1.7-3.7-1-1.6,1.1-1,4.1,1.1,5.4-2.1-1.3-2.7-4.2-1.1-5.4Z"/><path class="cls-4" d="M261.7,270h0c-1.4.9-2.6,1.6-3.4,2h0c0,.7.3,1.5.8,2.2,1.5-.8,3-1.7,4.5-2.6-.6-.6-1.3-1.2-2-1.5l.1-.1Z"/><path class="cls-4" d="M261.7,270h0c-1.4.9-2.6,1.6-3.4,2h0c.8-.4,2-1.1,3.4-2Z"/><path class="cls-4" d="M261.7,270h0c.7.4,1.4.9,2,1.5h0c-.6-.6-1.3-1.2-2-1.5Z"/><path class="cls-4" d="M258.3,272c0,.7.3,1.5.8,2.2h0c-.5-.7-.8-1.4-.8-2.2h0Z"/><path class="cls-4" d="M210,285.3c.3-.1.5-.3.7-.5.3-.2.5-.3.7-.5s.5-.4.7-.5c0,0,.2-.2.3-.3-1.5-.2-2.7-.4-3.5-.6h0l-1.6-1.5c-.9-4.2-2.6-8.5-6.3-11.2-.5-.4-1-.7-1.5-.9-.5.5-.9,1.1-1.2,1.7.6.2.9.5,1,.9.4,1.1-.7,2.5-.4,2.9,2.7.7,4.5,2,5.4,3.6,1.6,2.6,1,5.9-1.4,8.5,1.2.2,2.5.2,4-.2h0c.2-.2.4-.3.6-.5.4-.3,1.1-.4,2-.5h0c.1,0,.3-.2.4-.2l.1-.2Z"/><path class="cls-4" d="M207.6,286.1c-.2.2-.4.3-.6.5h0c.2-.2.3-.3.5-.5.4-.3,1-.4,1.9-.5h0c-.9,0-1.6.3-2,.5h.2Z"/><path class="cls-4" d="M204.5,278.3c-1-1.5-2.8-2.8-5.4-3.6h0c2.7.7,4.5,2,5.4,3.5v.1Z"/><path class="cls-4" d="M199.4,271.9c-.1-.4-.5-.7-1-.9h0c.6.2.9.5,1.1.9h-.1Z"/><path class="cls-4" d="M203.1,286.8h0c1.2.2,2.5.2,4-.2h0c-1.5.4-2.8.5-4,.2Z"/><path class="cls-4" d="M212.4,283.6h0s-.2.2-.3.3c0,0,.2-.2.3-.3Z"/><path class="cls-4" d="M211.4,284.4c-.2.2-.5.3-.7.5.2-.2.5-.3.7-.5Z"/><path class="cls-4" d="M209.6,285.6h0c.1,0,.2-.2.4-.2-.1,0-.3.2-.4.2Z"/></g></svg>