<?xml version="1.0" encoding="UTF-8"?><svg id="Layer_3" xmlns="http://www.w3.org/2000/svg" width="414.97" height="300.88" viewBox="0 0 414.97 300.88"><defs><style>.cls-1,.cls-2{fill:none;}.cls-3,.cls-2{stroke:#000;stroke-miterlimit:10;stroke-width:2px;}.cls-4{fill:#f0f0f0;}.cls-5{fill:#f0f0f0;}</style></defs><path d="M178.71,279.29c1.03.15,4.09.29,3.87,1.74-4.94-.02-11.78.13-16.43-1.47-1.32-.46-17.82-9.69-18.48-10.52-4.09-5.07-.02-8.35.04-13.62l8.19,2.07,1.27.86c-1.21,4.13.4,7.82-2.22,11.84,7.56,7.25,14.26,7.69,23.75,9.12Z"/><path d="M163.18,230.41c7.93,11.97-2.17,17.88-5.71,27.09-.11.29-.2.55-.29.83l-1.27-.86c1.78-8.04,8.41-11.93,7.12-20.96-1.16-8.06-5.93-4.33-10.24-9.25-2.55-2.9-2.22-5.45-4.04-8.26-1.78-2.79-12.15-11.75-18.34-15.82l1.76-.37c2.7,1.74,6.33,3.56,8.28,5.01,1.87,1.38,8.17,8.99,10.24,7.54,9.18-17.69,27.77,7.1,12.5,15.05Z"/><path d="M132.16,202.82l-1.76.37c-1.74-1.14-3.14-1.89-3.95-2-2.68-.37-7.89,5.58-10.06-1.08-2.13-6.55,1.58-6.7-7.58-8.83-.53-.13-1.25-.26-2.15-.44l.22-1.1c3.01.57,6,1.14,9.01,1.67,2.31.4,3.58-.92,6.92.18,5.91,1.93,3.76,5.51,6.52,8.92.59.72,1.63,1.52,2.83,2.31Z"/><path d="M112.36,12.41c9.91,9.86,16.3,17.53,14.87,32.36-.83,8.9-5.27,9.73-8.06,10.66l-.44-.79v-.02c5.56-2.57,5.89-11.8,5.43-17.09-1.23-14.39-12.26-19.99-20.54-30.21,3.45-.13,6.46,2.83,8.74,5.1Z"/><path d="M118.73,54.63l.44.79c-.92.31-1.69.64-2.07,1.25-1.25,2.11,1.45,7.01-3.98,9.86-5.6,2.97-6.63-.62-10-.7-.92-.02-1.98.31-3.12.75l-.37-1.01c3.08-1.34,1.89-3.8,3.16-8.33,2.15-7.56,11.16-1.71,13.47-1.96.92-.09,1.74-.31,2.46-.66Z"/><path d="M106.87,189.74l-.22,1.1c-5.14-.94-15.25-2.39-17.9-2.17-2.13.18-2.97,4.68-6.61,5.8-4.77,1.47-11.27,1.14-13.82-3.71-1.34-2.59-1.19-7.76-3.69-9.62-.48-.35-5.93-2.09-11.12-3.67l.35-1.19c4.06,1.23,8.3,2.35,9.31,2.31,3.89-.13,4.77-4.26,8.83-5.54,9.71-3.03,17.88,3.71,17.4,13.53,5.82.92,11.64,2.04,17.47,3.16Z"/><path d="M99.64,65.57l.37,1.01c-2.5.97-5.32,2.5-7.69,2.24-.86.94,5.12,11.4-3.71,16.26-8.85,4.88-13.31.09-20.19-4.83l-.26.13-.62-1.16c.64-.33,1.19-.68,1.56-1.08,1.96-2.04,3.91-22.28,14.3-19.42,4.2,1.16,4.86,8.41,10.3,7.97,2.9-.24,4.75-.62,5.93-1.12Z"/><path d="M67.54,79.22l.62,1.16-13.29,6.88,1.63,3.62c-1.21,5.36-6.94,3.69-10.28,5.14-3.23,1.38-10.28,13.82-11.16,18.52l-2.2-.62c-2.26-5.36,10.9-18.12,11.01-19.97.11-1.6-4.33-6.2.72-9.82,4.68-3.38,8.28,1.98,9.31,1.96.68,0,2.37-2.7,3.65-3.36,2.42-1.23,7.18-2.11,10-3.52Z"/><path d="M53.86,176.28l-.35,1.19c-4.02-1.23-7.89-2.37-9.14-2.75-4.92-1.43-15.73-.35-14.61-7.93.55-3.69,4.53-2.75,4.17-5.14-3.1-6.9-10.35-14.13-7.21-22.08-26.12-2.09-16.26-34.1,6.13-25.64l2.2.62c-.07.37-.11.7-.09.97.24,5.01,14.39,9.36.94,19.4-3.76,2.81-7.21.72-7.23,8.24,0,3.23,4.35,12.68,6.37,15.25,2.07,2.61,5.49,2.64,7.45,4.9-.31.07-.64.18-1.03.35-7.73-1.67-13.47,6.61-2.46,7.69l2.46-7.67c.55.09,1.1.26,1.65.48-.18-.33-.4-.62-.62-.86,3.76-.59.9,8.26,3.25,10.02.72.55,4.33,1.8,8.11,2.97Z"/><path d="M42.5,163.29c.22.24.44.53.62.86-.55-.22-1.1-.4-1.65-.48v-.02c.4-.18.72-.29,1.03-.35Z"/><path class="cls-2" d="M41.47,163.64c.4-.18.72-.29,1.03-.35,3.76-.59.9,8.26,3.25,10.02.72.55,4.33,1.8,8.11,2.97,4.06,1.23,8.3,2.35,9.31,2.31,3.89-.13,4.77-4.26,8.83-5.54,9.71-3.03,17.88,3.71,17.4,13.53,5.82.92,11.64,2.04,17.47,3.16,3.01.57,6,1.14,9.01,1.67,2.31.4,3.58-.92,6.92.18,5.91,1.93,3.76,5.51,6.52,8.92.59.72,1.63,1.52,2.83,2.31,2.7,1.74,6.33,3.56,8.28,5.01,1.87,1.38,8.17,8.99,10.24,7.54,9.18-17.69,27.77,7.1,12.5,15.05,7.93,11.97-2.17,17.88-5.71,27.09-.11.29-.2.55-.29.83-1.21,4.13.4,7.82-2.22,11.84,7.56,7.25,14.26,7.69,23.75,9.12,1.03.15,4.09.29,3.87,1.74-4.94-.02-11.78.13-16.43-1.47-1.32-.46-17.82-9.69-18.48-10.52-4.09-5.07-.02-8.35.04-13.62l8.19,2.07c1.78-8.04,8.41-11.93,7.12-20.96-1.16-8.06-5.93-4.33-10.24-9.25-2.55-2.9-2.22-5.45-4.04-8.26-1.78-2.79-12.15-11.75-18.34-15.82-1.74-1.14-3.14-1.89-3.95-2-2.68-.37-7.89,5.58-10.06-1.08-2.13-6.55,1.58-6.7-7.58-8.83-.53-.13-1.25-.26-2.15-.44-5.14-.94-15.25-2.39-17.9-2.17-2.13.18-2.97,4.68-6.61,5.8-4.77,1.47-11.27,1.14-13.82-3.71-1.34-2.59-1.19-7.76-3.69-9.62-.48-.35-5.93-2.09-11.12-3.67-4.02-1.23-7.89-2.37-9.14-2.75-4.92-1.43-15.73-.35-14.61-7.93.55-3.69,4.53-2.75,4.17-5.14-3.1-6.9-10.35-14.13-7.21-22.08-26.12-2.09-16.26-34.1,6.13-25.64-2.26-5.36,10.9-18.12,11.01-19.97.11-1.6-4.33-6.2.72-9.82,4.68-3.38,8.28,1.98,9.31,1.96.68,0,2.37-2.7,3.65-3.36,2.42-1.23,7.18-2.11,10-3.52.64-.33,1.19-.68,1.56-1.08,1.96-2.04,3.91-22.28,14.3-19.42,4.2,1.16,4.86,8.41,10.3,7.97,2.9-.24,4.75-.62,5.93-1.12,3.08-1.34,1.89-3.8,3.16-8.33,2.15-7.56,11.16-1.71,13.47-1.96.92-.09,1.74-.31,2.46-.66v-.02c5.56-2.57,5.89-11.8,5.43-17.09-1.23-14.39-12.26-19.99-20.54-30.21,3.45-.13,6.46,2.83,8.74,5.1,9.91,9.86,16.3,17.53,14.87,32.36-.83,8.9-5.27,9.73-8.06,10.66-.92.31-1.69.64-2.07,1.25-1.25,2.11,1.45,7.01-3.98,9.86-5.6,2.97-6.63-.62-10-.7-.92-.02-1.98.31-3.12.75-2.5.97-5.32,2.5-7.69,2.24-.86.94,5.12,11.4-3.71,16.26-8.85,4.88-13.31.09-20.19-4.83l-.26.13-13.29,6.88,1.63,3.62c-1.21,5.36-6.94,3.69-10.28,5.14-3.23,1.38-10.28,13.82-11.16,18.52-.07.37-.11.7-.09.97.24,5.01,14.39,9.36.94,19.4-3.76,2.81-7.21.72-7.23,8.24,0,3.23,4.35,12.68,6.37,15.25,2.07,2.61,5.49,2.64,7.45,4.9.22.24.44.53.62.86-.55-.22-1.1-.4-1.65-.48v-.02c-7.73-1.67-13.47,6.61-2.46,7.69l2.46-7.67"/><path class="cls-1" d="M262,275.88c4.23.59,3.54-2.24,1.66-4.29-1.5.89-3.01,1.76-4.54,2.61.64.84,1.61,1.51,2.87,1.69Z"/><path class="cls-1" d="M259.22,269.9c-.68.48-.96,1.27-.91,2.12.77-.41,1.96-1.12,3.39-1.99-.9-.46-1.8-.6-2.47-.13Z"/><path class="cls-1" d="M207.05,286.6c.63-.19,1.29-.42,1.97-.76.19-.09.36-.19.54-.28-.9.1-1.58.27-1.95.54-.21.15-.39.32-.57.5Z"/><path class="cls-1" d="M207.34,281.4l1.58,1.49c.79.19,1.99.42,3.47.65,4.55-4.29,4.14-10.71-3.39-12.73-.46-.65,3.08-4.38-3.61-4.05-2.48.12-4.39,1.1-5.77,2.56.48.27.96.57,1.45.92,3.66,2.62,5.35,6.91,6.27,11.16Z"/><path class="cls-1" d="M325.1,219.95l1.03-6.56c-11.31,0-1.6,10.76-1.03,6.56Z"/><path class="cls-3" d="M397.43,160.11c-18.65,16.52-42.83,13.58-59.43,33.88-2.86,3.5-9.17,15.19-12.15,17.06-1.49.94-4.7.06-5.96,1.98-2.92,4.44.9,7.2,1.11,9.57,1.54-.39,4.13.8,5.67-1,2.15-3.09,1.06-6.54,2.3-10,1.78-4.96,11.46-17.66,15.6-21.31,11.76-10.37,22.24-10.78,35.57-16.73,11.8-5.26,23.08-12.27,25.97-25.8l-8.68,12.33ZM325.1,219.95c-.57,4.2-10.27-6.56,1.03-6.56l-1.03,6.56Z"/><path class="cls-4" d="M24.41,114.08c-3.19.43-9.05,5.55-9.79,8.79-4.69,20.66,32.94,12.67,20.32-2.29-1.15-1.36-9.06-6.69-10.53-6.5Z"/><path class="cls-4" d="M76.1,64.89c-3.83,5.66-6.13,18.05,3.5,19.31,17.07,2.23,11.98-23.94-3.5-19.31Z"/><path class="cls-5" d="M74.61,175.67c-8.54,1.92-4.14,15.96,1.05,17.02,12.17,2.48,13.79-20.37-1.05-17.02Z"/><path class="cls-4" d="M107.38,55.64c-4.21,1.41-3.39,11.03,3.71,8.9,6.7-2.01,2.42-10.95-3.71-8.9Z"/><path class="cls-4" d="M50.1,85.45c-.78-.45-3.08-.52-3.77-.08l-1.03,6.9c2.81,1.56,5.18,1.1,8.07.12.43-.6-2.82-6.68-3.28-6.94Z"/><path class="cls-5" d="M118.12,195.07c-1.45,2.29.3,8.84,4.83,4.32,6.12-6.1-3.47-6.47-4.83-4.32Z"/><path class="cls-1" d="M249.23,273.87c-2,1.4-.64,5.5,2.78,5.97,7.22,1.01.09-7.99-2.78-5.97Z"/><path class="cls-1" d="M297.42,240.03v-4.1c-13.67-1.82-16.42,20.22-.77,16.15,6.97-1.81,6.09-8.6,4.85-14.09l-4.09,2.05Z"/><path class="cls-1" d="M195.41,270.73c-13.3.66-10.34,25.89,3.63,19.08,1.65-.8,3-1.83,4.02-2.97-5.98-1.28-7.9-10.34-4.69-15.85-.63-.22-1.58-.33-2.97-.26Z"/><path class="cls-1" d="M203.06,286.84c3.84-4.26,3.1-10.14-4.05-12.07-.36-.51,1.77-2.96-.64-3.79-3.21,5.51-1.29,14.57,4.69,15.85Z"/><path class="cls-3" d="M288.24,235.48c-5.97,3.96-5.15,11.66-2.38,17.39l-.65,1.02c-1.36,1.45-2.86,2.66-4.48,3.82-2.01,1.44-12.84,8.54-19.04,12.33.7.36,1.39.92,1.97,1.55,7.69-4.54,15.14-9.48,22.74-14.16,5.16-3.17,4.75-1.15,10.27-2.25,9.51-1.89,9.64-11.45,5.87-18.71l1.65-1.37c1.15.11,2.26.85,3.45.36.74-.31,11.83-9.54,12.41-10.25.66-.81,1.04-1.52.95-2.6-5.74,1.46-16.33,11.53-19.11,12.1-3.24.65-6.01-4.29-13.64.77ZM296.66,252.08c-15.65,4.07-12.9-17.97.76-16.15v4.1s4.09-2.05,4.09-2.05c1.23,5.5,2.11,12.28-4.85,14.09Z"/><path class="cls-3" d="M203.06,286.84c-1.03,1.14-2.38,2.17-4.02,2.97-13.98,6.81-16.94-18.43-3.63-19.08,1.39-.07,2.34.04,2.97.26.35-.6.77-1.17,1.24-1.67-16.24-9.16-23.85,27.8-.18,23.97,5.23-.85,5.52-4.58,7.61-6.69-1.48.44-2.81.49-3.99.24Z"/><path class="cls-3" d="M257.44,272.42c-2.61.64-6.73-3.17-10.12-1.48l-1.33,10.46c-1.77,5.4-23.88,3.65-33.59,2.15-.79.75-1.74,1.43-2.83,2.02,6.05-.66,22.43,2.14,27.85,1.62,6.02-.57,8.02-3.55,11.69-4.54,4.95-1.34,9.27,2.23,8.48-7.59.52-.28,1.03-.58,1.54-.86-.5-.67-.78-1.44-.82-2.17-.42.23-.72.37-.87.4ZM252.02,279.85c-3.42-.48-4.78-4.58-2.78-5.97,2.88-2.01,10.01,6.98,2.78,5.97Z"/><path class="cls-3" d="M261.69,270.03c-1.43.88-2.62,1.58-3.39,1.99.04.73.32,1.5.82,2.17,1.52-.85,3.03-1.72,4.54-2.61-.58-.64-1.27-1.19-1.97-1.55Z"/><path class="cls-3" d="M208.92,282.9l-1.58-1.49c-.92-4.25-2.61-8.54-6.27-11.16-.49-.35-.97-.65-1.45-.92-.48.5-.89,1.06-1.24,1.67,2.41.83.28,3.28.64,3.79,7.15,1.92,7.88,7.8,4.05,12.07,1.18.25,2.51.19,3.99-.24.18-.18.36-.35.57-.5.37-.27,1.05-.45,1.95-.54,1.09-.58,2.03-1.27,2.83-2.02-1.48-.23-2.68-.45-3.47-.65Z"/><path class="cls-5" d="M153.85,214.9c-6.03,8.38,4.11,18.95,12.01,9.45.59-.71.97-1.44,1.05-2.37-.79-6.91-7.27-15.12-13.06-7.08Z"/><path class="cls-5" d="M150.32,267.72l4.51-2.56-3.54-7.67c-2.7,1.35-3.8,9.7-.97,10.23Z"/></svg>