<?xml version="1.0" encoding="UTF-8"?><svg id="Layer_3" xmlns="http://www.w3.org/2000/svg" width="414.97" height="300.88" viewBox="0 0 414.97 300.88"><defs><style>.cls-1{fill:#fcfaf9;stroke:#fcfaf9;stroke-miterlimit:10;stroke-width:2px;}</style></defs><path class="cls-1" d="M45.06,114.4h0l-2.06-.6c-.37-1-.28-2.3.19-3.7-.47,1.4-.56,2.7-.19,3.7h0l2.06.6Z"/><path class="cls-1" d="M157.77,209.9c-1.59.9-3.18,2.6-4.49,5.4h0c1.31-2.8,2.9-4.5,4.49-5.4Z"/><path class="cls-1" d="M22.7,126.1c0,6.2,4.3,12.5,14.59,13.3h0c-10.29-.9-14.59-7.1-14.59-13.3Z"/><path class="cls-1" d="M44.03,161.6c-2.43-5.8-7.67-11.9-7.48-18.4-.19,6.5,5.05,12.6,7.48,18.4v.4-.4Z"/><path class="cls-1" d="M118.11,66.4c-5.24,3-6.17-.6-9.35-.7-.84,0-1.87.3-2.9.7h0c-2.34,1-4.96,2.5-7.2,2.2h0c2.24.3,4.86-1.3,7.2-2.2,1.03-.4,2.06-.8,2.9-.8,3.18,0,4.12,3.7,9.35.7,1.59-.9,2.43-2,2.9-3.1-.47,1.1-1.31,2.2-2.9,3.1h0v.1Z"/><path class="cls-1" d="M51.98,86.9c-.84,2.9,1.5,5.8,1.4,7v.2-.2c0-1.2-2.24-4.1-1.4-7Z"/><path class="cls-1" d="M123.81,55.3c-.84.3-1.59.6-1.96,1.2h0c.37-.6,1.03-.9,1.96-1.2,1.31-.5,2.99-.9,4.49-2.4-1.5,1.4-3.18,1.9-4.49,2.3h0v.1Z"/><path class="cls-1" d="M123.35,54.5c5.24-2.6,5.52-11.8,5.05-17.1-1.12-14.4-11.51-20-19.18-30.2h0c7.76,10.2,18.05,15.8,19.18,30.2.47,5.3,0,14.5-5.05,17.1h0Z"/><path class="cls-1" d="M150.47,268.9c-3.84-5.1,0-8.3,0-13.6h0c0,5.3-3.84,8.5,0,13.6.65.8,16.09,10.1,17.3,10.5,4.4,1.6,10.76,1.5,15.34,1.5h0c-4.58,0-11.04.1-15.34-1.5-1.22-.5-16.65-9.7-17.3-10.5Z"/><path class="cls-1" d="M125.12,191.1c-1.5,0-2.43.4-3.65.3,1.22,0,2.24-.4,3.65-.3Z"/><path class="cls-1" d="M195.09,270.6h0c-10.48.5-10.2,18.6-1.96,20.1-8.23-1.5-8.51-19.6,1.96-20.1Z"/><path class="cls-1" d="M197.9,270.9c-.47-.2-1.03-.3-1.87-.3.84,0,1.4.1,1.87.3h0Z"/><path class="cls-1" d="M62.45,177.3c-3.74-1.2-7.39-2.4-8.51-2.8-4.3-1.3-13.47-.5-13.75-6.6.28,6.2,9.45,5.3,13.75,6.6,1.12.4,4.77,1.5,8.51,2.8,4.86,1.6,9.92,3.3,10.38,3.7,2.34,1.9,2.24,7,3.46,9.6,2.34,4.9,8.42,5.2,12.91,3.7,3.37-1.1,4.21-5.6,6.17-5.8,2.53-.2,11.97,1.2,16.74,2.2.84.2,1.5.3,2.06.4,8.61,2.1,5.05,2.3,7.11,8.8,2.06,6.7,6.92.7,9.45,1.1.75.1,2.06.9,3.74,2,5.8,4.1,15.53,13,17.12,15.8,1.68,2.8,1.4,5.4,3.74,8.3,4.02,4.9,8.51,1.2,9.54,9.2,1.22,9-4.96,12.9-6.64,20.9h0l1.22.9h-.09c0,.1-1.22-.8-1.22-.8,1.68-8,7.86-11.9,6.64-21-1.12-8.1-5.52-4.3-9.54-9.2-2.34-2.9-2.06-5.5-3.74-8.3s-11.32-11.7-17.12-15.8h0c-1.59-1.1-2.9-1.9-3.74-2-2.53-.4-7.39,5.6-9.45-1.1-1.96-6.5,1.5-6.7-7.11-8.8-.47-.1-1.12-.3-1.96-.4l.19-1.1h0l-.19,1.1c-4.77-.9-14.22-2.4-16.74-2.2-1.96.2-2.81,4.7-6.17,5.8-4.49,1.5-10.57,1.1-12.91-3.7-1.22-2.6-1.12-7.8-3.46-9.6-.47-.4-5.52-2.1-10.38-3.7"/><path class="cls-1" d="M179.47,279.2h0c-8.89-1.4-15.15-1.9-22.17-9.1h0c7.11,7.2,13.38,7.7,22.26,9.1h-.09Z"/><path class="cls-1" d="M198.46,274.7h0c-.19-.4.84-1.9.37-2.9.37,1.1-.65,2.5-.37,2.9Z"/><path class="cls-1" d="M202.29,286.7h0c2.24-2.7,2.81-6,1.31-8.5,1.5,2.6.94,5.9-1.31,8.5Z"/><path class="cls-1" d="M69.75,178.2c.28,0,.56.1.84.2-.28,0-.56-.1-.84-.2Z"/><path class="cls-1" d="M315.66,220.8c.28,0,.56-.2.65-.6-.09.4-.37.6-.65.6Z"/><path class="cls-1" d="M291.52,236.02l1.03.47,1.79,1.42c.75,3.4,1.31,7.4,0,10.3,1.22-2.9.65-6.8,0-10.3l-.51-.31-1.41-.79-.89-.79Z"/><path class="cls-1" d="M76.77,174.8c.28-.3.65-.6,1.03-.9-.37.3-.65.6-1.03.9Z"/><path class="cls-1" d="M51.14,163.6h0c-3.65-.8-6.73.8-7.76,2.8.94-2,4.12-3.6,7.76-2.8h0c.47,0,1.03.2,1.5.4h0c-.47-.2-1.03-.4-1.5-.5h0v.1Z"/><path class="cls-1" d="M75.92,175.7c-1.31,1.4-2.43,2.7-4.49,2.8h-.47.47c2.06,0,3.18-1.4,4.49-2.8Z"/><path class="cls-1" d="M55.06,173.2c.65.5,4.02,1.8,7.58,3h0c-3.55-1.2-6.92-2.4-7.58-3-2.15-1.8.47-10.6-2.99-10h0c3.46-.6.84,8.3,2.99,10Z"/><path class="cls-1" d="M209.4,284.8c-.19.2-.47.3-.65.5.28-.1.47-.3.65-.5Z"/><path class="cls-1" d="M248.97,274.7c2.24,2,3.55,5.7-.84,5-.56,0-1.12-.3-1.59-.6.47.3,1.03.5,1.59.6,4.4.7,3.09-3,.84-5Z"/><path class="cls-1" d="M54.22,96.9c.47-.5.94-.8,1.31-1,2.53-1.2,6.55-.3,8.61-2.8-2.06,2.5-5.99,1.6-8.51,2.8-.37.2-.84.5-1.31,1h-.09Z"/><path class="cls-1" d="M76.3,80.1h-.28l-12.44,7h0l12.44-6.9h.28c6.45,4.8,10.57,9.6,18.89,4.7.75-.5,1.4-1,1.96-1.5-.56.5-1.22,1-1.96,1.5-8.23,4.9-12.44,0-18.89-4.8Z"/><path class="cls-1" d="M286.1,252.5c1.12,0,2.34-.1,3.65-.5h0c-1.4.4-2.62.5-3.65.5Z"/><path class="cls-1" d="M289.38,235.7c.37,0,.75,0,1.12.1-.37,0-.75,0-1.12-.1Z"/><path class="cls-1" d="M40.38,137.9c1.22-1.5,3.37-1.3,5.52-3.1,1.22-.9,2.15-1.8,2.9-2.7-.75.8-1.68,1.7-2.9,2.7-2.24,1.8-4.3,1.6-5.52,3.1Z"/><path class="cls-1" d="M158.14,257.4l-7.67-2.1h0l7.67,2.1h0Z"/><path class="cls-1" d="M179.47,279.2h0c.94.2,3.84.3,3.65,1.7h0c.19-1.4-2.62-1.6-3.65-1.7Z"/><path class="cls-1" d="M180.41,279.2h0c-8.89-1.4-15.15-1.9-22.26-9.1h0c2.43-4,5.5-6.78,3.96-10.72-.33-.85-3.78-1.47-3.78-1.47l.65-.5s-6.8-3.55-8.51-2.1c-3.88,3.3-2.99,8.5.84,13.6.65.8,16.09,10.1,17.3,10.5,4.3,1.6,10.76,1.5,15.34,1.5.19-1.4-2.62-1.6-3.65-1.7h.09ZM153.84,267.6c-2.62-.5-1.59-8.9.94-10.2l3.27,7.7-4.21,2.6h0v-.1Z"/><path class="cls-1" d="M157.3,270.1c2.43-4,.94-7.7,2.06-11.8h0c-1.12,4.1.37,7.8-2.06,11.8h0Z"/><path class="cls-1" d="M143.18,207.8c-1.78-1.4-5.24-3.3-7.76-5l-1.59.4c5.8,4.1,15.53,13,17.12,15.8,1.68,2.8,1.4,5.4,3.74,8.3,4.02,4.9,8.51,1.2,9.54,9.2,1.22,9-4.96,12.9-6.64,21l1.22.9c0-.3.19-.5.28-.8,3.27-9.2,12.72-15.1,5.33-27.1h0c11.97-6.7,1.59-25.4-7.2-20.5-1.59.9-3.18,2.6-4.49,5.4h0c-1.96,1.5-7.86-6.2-9.54-7.5h0v-.1ZM155.81,214.9c5.43-8,11.51.2,12.25,7.1,0,.9-.47,1.7-1.03,2.4-7.39,9.5-16.84-1.1-11.22-9.5Z"/><path class="cls-1" d="M159.64,257.4c-.09.3-.19.5-.28.8h0c0-.3.19-.5.28-.8,3.27-9.2,12.72-15.1,5.33-27.1h0c7.39,12-2.06,17.9-5.33,27.1Z"/><path class="cls-1" d="M164.97,230.3h0c12.07-6.7,1.59-25.4-7.2-20.5,8.7-4.9,19.18,13.7,7.2,20.5Z"/><path class="cls-1" d="M137.57,204.3h0c2.24,1.5,5.33,3.1,7.02,4.4,1.59,1.2,6.92,7.8,8.7,6.5h0c-1.78,1.2-7.11-5.4-8.7-6.5-1.68-1.3-4.77-2.9-7.02-4.4h0Z"/><path class="cls-1" d="M121.48,191.4h-.75c-2.81-.5-5.61-1.1-8.42-1.7h0c2.81.6,5.61,1.1,8.42,1.7h.75Z"/><path class="cls-1" d="M130.64,200.5c.56.7,1.5,1.5,2.62,2.3h0c-1.12-.8-2.06-1.6-2.62-2.3-2.62-3.4-.56-7-6.08-8.9-.75-.3-1.4-.4-2.06-.4.56,0,1.22.2,2.06.4,5.52,1.9,3.55,5.5,6.08,8.9Z"/><path class="cls-1" d="M113.15,191c8.61,2.1,5.14,2.3,7.11,8.8,2.06,6.7,6.92.7,9.45,1.1.75.1,2.06.9,3.74,2h0l1.59-.4c-1.12-.8-2.06-1.6-2.62-2.3-2.62-3.4-.56-7-6.08-8.9-.75-.3-1.4-.4-2.06-.4-1.5,0-2.43.4-3.65.3h-.75c-2.81-.5-5.61-1.1-8.42-1.7l-.19,1.1c.84.2,1.5.3,1.96.4h-.09ZM121.85,194.8c1.31-2.2,10.29-1.8,4.49,4.3-4.21,4.5-5.89-2-4.49-4.3Z"/><path class="cls-1" d="M131.3,44.7c-.37,4.4-1.59,6.9-3.09,8.3,1.5-1.4,2.71-3.9,3.09-8.3,1.31-14.8-4.68-22.5-13.94-32.4h0c-2.15-2.3-4.96-5.2-8.14-5.1h0c3.18,0,6.08,2.8,8.14,5.1,9.26,9.9,15.25,17.5,13.94,32.4Z"/><path class="cls-1" d="M128.49,37.4c.47,5.3,0,14.5-5.05,17.1h0l.37.8h0c1.31-.5,2.99-.9,4.49-2.3,1.5-1.4,2.71-3.9,3.09-8.3,1.31-14.8-4.68-22.5-13.94-32.4-2.15-2.3-4.96-5.2-8.14-5.1,7.76,10.2,18.05,15.8,19.18,30.2Z"/><path class="cls-1" d="M105.48,65.5c2.9-1.3,1.78-3.8,2.9-8.3,2.06-7.6,10.48-1.7,12.63-2,.84,0,1.59-.3,2.34-.7h0c-.65.3-1.4.5-2.34.6-2.15.2-10.57-5.6-12.63,2-1.22,4.5,0,7-2.99,8.3h0l.09.1Z"/><path class="cls-1" d="M121.1,55.2c-2.15.2-10.57-5.6-12.63,2-1.22,4.5,0,7-2.9,8.3l.37,1c1.03-.4,2.06-.8,2.9-.7,3.18,0,4.12,3.7,9.35.7,1.59-.9,2.43-2,2.9-3.1,1.03-2.5,0-5.3.84-6.7h0c.37-.6,1.03-.9,1.96-1.2l-.37-.8h0c-.65.4-1.4.6-2.34.7v-.2h-.09ZM116.24,64.4c-6.64,2.1-7.39-7.5-3.46-8.9,5.71-2,9.73,6.9,3.46,8.9Z"/><path class="cls-1" d="M121.01,63.3c1.03-2.5,0-5.3.84-6.7h0c-.84,1.5,0,4.2-.84,6.7Z"/><polygon class="cls-1" points="123.35 54.5 123.35 54.5 123.81 55.3 123.81 55.3 123.35 54.5"/><path class="cls-1" d="M63.02,177.7c4.86,1.6,9.82,3.1,10.29,3.5,2.34,1.9,2.15,7,3.46,9.6,2.34,4.8,8.42,5.2,12.91,3.7,3.37-1.1,4.21-5.6,6.17-5.8,2.53-.2,11.97,1.2,16.74,2.2l.19-1.1c-5.43-1.1-10.85-2.2-16.37-3.2.47-9.8-7.2-16.6-16.28-13.5-.75.2-1.5.1-2.06.5-.37.3-.75.7-1.12,1-.28.3-.47.6-.84.9-1.31,1.4-2.15,3-4.21,3.1h-.84c-.28,0-.56-.1-.84-.2-.65-.1-1.4-.3-2.24-.6-.65-.2-1.31-.4-1.96-.6-.19,0-.47-.1-.65-.2-.75-.2-1.4-.4-2.15-.7l-.94.9.84.4-.09.1ZM82.56,175.8c13.84-3.3,12.35,19.5,1.03,17-4.86-1.1-8.98-15.1-1.03-17Z"/><path class="cls-1" d="M76.95,78.1c1.87-2,3.65-22.3,13.38-19.4,3.93,1.2,4.58,8.4,9.63,8,2.71-.2,4.49-.6,5.52-1.1h0c-1.12.5-2.81.9-5.52,1.1-5.05.4-5.71-6.8-9.63-8-9.73-2.9-11.51,17.4-13.38,19.4s-.84.8-1.5,1.1h0c.56-.3,1.12-.7,1.5-1.1Z"/><path class="cls-1" d="M105.86,66.5h0l-.37-1h0c-1.12.5-2.81.9-5.52,1.1-5.05.4-5.71-6.8-9.63-8-9.73-2.9-11.51,17.4-13.38,19.4s-.84.7-1.5,1.1l.56,1.1h.28c6.45,4.8,10.57,9.6,18.89,4.7.75-.5,1.4-1,1.96-1.5,5.24-5.2.75-13.9,1.5-14.7h0c2.24.3,4.86-1.3,7.2-2.2h0ZM86.77,84.1c-8.98-1.3-6.83-13.7-3.27-19.3,14.5-4.6,19.27,21.5,3.27,19.3Z"/><path class="cls-1" d="M97.16,83.5c5.24-5.2.84-13.8,1.5-14.7h0c-.75.9,3.74,9.5-1.5,14.7Z"/><polygon class="cls-1" points="105.86 66.5 105.48 65.5 105.48 65.5 105.86 66.5 105.86 66.5"/><path class="cls-1" d="M43.09,113.8l2.06.6c.75-4.1,5.89-14.1,9.17-17.5.47-.5.94-.8,1.31-1,2.53-1.2,6.55-.3,8.51-2.8.47-.6.84-1.3,1.03-2.3l-1.5-3.6h0l12.44-6.9h0l-.56-1.1h0c-2.62,1.4-7.11,2.3-9.35,3.5-1.22.7-2.81,3.4-3.46,3.4-.94,0-4.3-5.3-8.7-2-1.22.9-1.78,1.9-2.06,2.8-.84,2.9,1.5,5.8,1.4,7v.2c-.65,1.9-8.23,10.2-10.1,16.1-.47,1.4-.56,2.7-.19,3.7h0v-.1ZM55.63,85.3c.65-.4,2.81-.4,3.55,0h0c.47.3,3.46,6.3,3.09,6.9-2.71,1-4.96,1.4-7.58,0l.94-6.9h0Z"/><path class="cls-1" d="M54.04,84.1c4.4-3.4,7.76,2,8.7,2s2.24-2.7,3.46-3.4c2.24-1.2,6.73-2.1,9.35-3.5h0c-2.62,1.4-7.11,2.3-9.35,3.5-1.22.7-2.81,3.4-3.37,3.4-.94,0-4.3-5.3-8.7-2-1.22.9-1.78,1.9-2.06,2.8.28-1,.94-1.9,2.06-2.8h-.09Z"/><path class="cls-1" d="M45.06,114.4h0c.75-4.1,5.8-14.1,9.17-17.5-3.27,3.4-8.42,13.4-9.17,17.5Z"/><path class="cls-1" d="M43.18,110.2c1.87-5.9,9.45-14.2,10.1-16.1-.65,2-8.23,10.3-10.1,16.1Z"/><path class="cls-1" d="M65.17,90.8c-.19,1-.56,1.8-1.03,2.3.47-.6.84-1.3,1.03-2.4l-1.5-3.6h0l1.5,3.6h0v.1Z"/><rect class="cls-1" x="75.83" y="79.1" height="1.3"/><path class="cls-1" d="M52.07,163.2c-1.87-2.2-5.05-2.3-6.92-4.9-1.87-2.6-5.99-12-5.99-15.2s.47-4.3,1.22-5.2c-.75.9-1.22,2.3-1.22,5.2,0,3.2,4.02,12.7,5.99,15.2"/><path class="cls-1" d="M43.37,166.4c-.94,2,.28,4.3,5.43,4.9h0c-5.14-.6-6.36-2.9-5.43-4.9Z"/><path class="cls-1" d="M51.14,163.6c.47,0,1.03.3,1.5.5h0c-.47-.2-1.03-.4-1.5-.5h0Z"/><path class="cls-1" d="M43.09,113.9h0c-12.07-4.9-20.3,3.8-20.3,12.3,0-8.6,8.23-17.2,20.3-12.3Z"/><path class="cls-1" d="M45.06,115.4c.19,4.5,11.13,8.5,3.74,16.7,7.3-8.2-3.55-12.2-3.74-16.7v-1h0v1Z"/><path class="cls-1" d="M52.73,165.4l.56-1.4h-.28c-.47-.2-1.03-.4-1.5-.5l-2.34,7.6h0c-5.14-.5-6.36-2.9-5.43-4.9s5.61-2.1,7.76-2.8h0c.37-.2.65-.3.94-.3h0c-.28,0-.56.2-.94.3.37-.2.65-.3.94-.3-1.87-2.2-5.05-2.3-6.92-4.9-1.87-2.6-5.99-12-5.99-15.2s.47-4.3,1.22-5.2c1.22-1.5,3.37-1.3,5.52-3.1,1.22-.9,2.15-1.8,2.9-2.7,7.3-8.2-3.55-12.2-3.74-16.7v-1h0l-2.06-.6h0c-12.07-4.9-20.3,3.7-20.3,12.3s4.3,12.4,14.59,13.3h0c-.47,1.2-.65,2.5-.75,3.7-.19,6.5,5.05,12.6,7.48,18.4v.4c0,1.9-3.46,1.3-3.93,4.7v1.3c.28,6.1,9.45,5.3,13.75,6.6h0c1.12.5,4.77,1.6,8.51,2.9,1.5.7,9.26,3.1.28-1.2h0c-3.55-1.2-6.92-2.4-7.58-3-2.15-1.8.47-10.6-2.99-10M26.35,122.8c.65-3.2,6.17-8.4,9.17-8.8,1.4-.2,8.79,5.1,9.82,6.5,11.79,15-23.38,22.9-18.99,2.3Z"/><path class="cls-1" d="M44.03,162c0,1.9-3.46,1.3-3.93,4.7v1.3-1.3c.47-3.5,3.84-2.8,3.93-4.7Z"/><path class="cls-1" d="M37.29,139.5c-.47,1.2-.65,2.5-.75,3.7,0-1.2.28-2.4.75-3.7h0Z"/><path class="cls-1" d="M51.88,164.1c-.19-.3.65-.4.47-.6l-.28-.3c-.28,0-.19.2-.56.3h-.37c.47,0,.28.4.75.6Z"/><path class="cls-1" d="M52.07,163.2h0c.19.2.37.5.56.8h0c-.19-.3-.37-.6-.56-.8h0Z"/><path class="cls-1" d="M52.07,163.2c-.28,0-.56.2-.94.3h0c.37-.2.65-.3.94-.3h0Z"/><path class="cls-1" d="M253.91,273.03c.56.8,1.5,1.5,2.71,1.7h0c3.93.6,3.27-2.2,1.59-4.3-1.4.9-2.81,1.8-4.21,2.6h-.09Z"/><path class="cls-1" d="M258.32,271.83h0c-.84-.5-1.68-.6-2.34-.1h0c-.65.5-.94,1.3-.84,2.1.75-.4,1.87-1.1,3.18-2h0Z"/><path class="cls-1" d="M206.04,286.5c.56-.2,1.22-.4,1.78-.7.19,0,.28-.2.47-.2-.84,0-1.4.3-1.78.5s-.37.3-.47.5h0v-.1Z"/><path class="cls-1" d="M384.04,160h0c-17.4,16.5-40.03,13.6-55.56,33.9-2.71,3.5-8.61,15.2-11.32,17.1-1.4.9-4.4,0-5.61,2-2.71,4.4.84,7.2,1.03,9.6,1.4-.4,3.84.8,5.33-1,1.96-3.1,1.03-6.5,2.15-10,1.68-5,10.76-17.7,14.59-21.3,11.04-10.4,20.77-10.8,33.3-16.7,11.04-5.3,21.61-12.3,24.32-25.8l-8.14,12.3h-.09v-.1ZM316.41,219.9v.4c-.09.4-.37.6-.65.6-2.15.1-7.2-7.5,1.78-7.5l-.94,6.6h-.19v-.1Z"/><path class="cls-1" d="M315.66,220.8c-2.15.1-7.2-7.5,1.78-7.5-8.89,0-3.84,7.7-1.78,7.5Z"/><path class="cls-1" d="M281.89,235.4h0c-5.61,4-4.77,11.7-2.24,17.4l-.56,1c-1.31,1.4-2.71,2.7-4.21,3.8-1.87,1.4-11.97,8.5-17.77,12.3.65.4,1.31.9,1.87,1.5h0c7.2-4.5,14.12-9.5,21.23-14.2,4.86-3.2,4.49-1.1,9.63-2.2,8.89-1.9,8.98-11.4,5.52-18.7l1.5-1.4c1.12.1,2.15.8,3.27.4.65-.3,11.04-9.5,11.6-10.2.65-.8.94-1.5.94-2.6-5.33,1.5-15.25,11.5-17.87,12.1-2.99.7-5.61-4.3-12.72.8h-.19,0ZM294.43,248.2c-.75,1.7-2.15,3.1-4.58,3.8h0c-1.4.4-2.62.5-3.65.5-10.01-.3-7.39-17.1,3.18-16.7.37,0,.75,0,1.12.1l.76.16,1.55.72,1.52,1.21c.75,3.4,1.31,7.4,0,10.3h0l.09-.1Z"/><path class="cls-1" d="M289.85,252h0c2.43-.7,3.84-2.1,4.58-3.8-.75,1.7-2.15,3.1-4.58,3.8Z"/><path class="cls-1" d="M289.38,235.7c-10.66-.3-13.28,16.4-3.18,16.7-10.01-.3-7.39-17.1,3.18-16.7Z"/><path class="cls-1" d="M202.29,286.8h0c-.94,1.1-2.24,2.2-3.74,3-2.06,1.1-3.84,1.3-5.33,1.1-8.23-1.5-8.51-19.6,1.96-20.1h.94c.84,0,1.4.1,1.87.3h0c.28-.6.75-1.2,1.12-1.7-15.15-9.2-22.26,27.8-.19,24,4.86-.8,5.14-4.5,7.11-6.7-1.4.4-2.62.5-3.74.2h0v-.1Z"/><path class="cls-1" d="M198.46,289.7c-2.06,1.1-3.84,1.3-5.33,1.1,1.5.3,3.27,0,5.33-1.1,1.5-.8,2.81-1.8,3.74-3-.94,1.1-2.24,2.2-3.74,3Z"/><path class="cls-1" d="M195.09,270.6h.94-.94Z"/><path class="cls-1" d="M253.74,271.97c-.37.2-.65.4-.84.4h0c-2.43.6-6.27-3.2-9.45-1.5l-1.22,10.5c-1.68,5.4-22.36,3.7-31.43,2.2h0s-.19.2-.28.3c-.19.2-.37.4-.65.5-.19.2-.47.3-.65.5s-.47.3-.65.5c-.09,0-.19.2-.37.2,5.71-.6,20.95,2.1,26,1.6,5.61-.6,7.48-3.5,10.94-4.5,4.58-1.3,8.7,2.2,7.95-7.6.47-.3.94-.6,1.4-.9h0c-.47-.7-.75-1.4-.75-2.2h0ZM247.85,279.77c-.56,0-1.12-.3-1.59-.6-1.96-1.3-2.53-4.2-1.03-5.4.94-.7,2.34,0,3.46,1,2.24,2,3.55,5.7-.84,5Z"/><path class="cls-1" d="M245.41,273.8c.94-.7,2.34,0,3.46,1-1.12-1.1-2.53-1.7-3.46-1-1.5,1.1-.94,4.1,1.03,5.4-1.96-1.3-2.53-4.2-1.03-5.4Z"/><path class="cls-1" d="M257.11,269.9h0c-1.31.9-2.43,1.6-3.18,2h0c.75-.4,1.87-1.1,3.18-2Z"/><path class="cls-1" d="M257.11,269.9h0c.65.4,1.31.9,1.87,1.5h0c-.56-.6-1.22-1.2-1.87-1.5Z"/><path class="cls-1" d="M253.93,271.9c0,.7.28,1.5.75,2.2h0c-.47-.7-.75-1.4-.75-2.2h0Z"/><path class="cls-1" d="M209.35,285.5c.28-.1.47-.3.65-.5.28-.2.47-.3.65-.5s.47-.4.65-.5c0,0,.19-.2.28-.3-1.4-.2-2.53-.4-3.27-.6h0l-1.5-1.5c-.84-4.2-2.43-8.5-5.89-11.2-.47-.4-1.19-.7-1.66-.9-.47.5-.59,1.1-.87,1.7.56.2.84.5.94.9.37,1.1-.65,2.5-.37,2.9,2.53.7,4.21,2,5.05,3.6,1.5,2.6.94,5.9-1.31,8.5,1.12.2,2.34.2,3.74-.2h0c.19-.2.37-.3.56-.5.37-.3,1.03-.4,1.87-.5h0c.09,0,.28-.2.37-.2v-.2h.09Z"/><path class="cls-1" d="M206.5,286c-.19.2-.37.3-.56.5h0c.19-.2.28-.3.47-.5.37-.3.94-.4,1.78-.5h0c-.84,0-1.5.3-1.87.5h.19Z"/><path class="cls-1" d="M203.6,278.2c-.94-1.5-2.62-2.8-5.05-3.6h0c2.53.7,4.21,2,5.05,3.5h0v.1Z"/><path class="cls-1" d="M198.83,271.8c-.09-.4-.47-.7-.94-.9h0c.56.2.84.5,1.03.9h-.09Z"/><path class="cls-1" d="M202.29,286.7h0c1.12.2,2.34.2,3.74-.2h0c-1.4.4-2.62.5-3.74.2Z"/><path class="cls-1" d="M208.37,285.5h0c.09,0,.19-.2.37-.2-.09,0-.28.2-.37.2Z"/></svg>