<?xml version="1.0" encoding="UTF-8"?><svg id="Layer_1" xmlns="http://www.w3.org/2000/svg" width="300" height="300" viewBox="0 0 300 300"><defs><style>.cls-1{fill:none;}.cls-1,.cls-2{stroke:#000;stroke-miterlimit:10;}</style></defs><path d="M277.86,287.29c-4.63-1.02-13.09-12.5-16.39-16.93-30.18-40.53-56.01-82.09-83.61-124.72-2.86-4.42-6.99-16.02-12.68-19.17-5.7-3.15-10.74-4.56-15.54-9.05-5.32-4.98-9.1-11.31-12.65-17.75.39-8.25-7.37-11.21-1.98-21.02,5.39-9.82,7.22-2.73,8.71,3.71.49,2.11,5.88,6.25,7.52,8.22,8.48,6.65,15.62,14.44,18.78,24.53,1.09,3.47-1.19,5.43,1.76,8.15,8.81,8.11,20.11,18.16,26.91,27.8,26.76,37.96,47.11,77.98,73.1,116.61,1.51,2.24,20.28,22.76,6.06,19.62ZM148.28,100.92c-2.07,11.48,6.43,17.62,16.45,20.86.57-.75,1.25-1.42,1.88-2.12-8.22-5.93-7.92-15.34-18.33-18.74ZM169.51,126.06c4.81,6.65,7.71,15.9,13.57,21.6,1.07-1.02,2.13-2.04,3.2-3.06-4.4-7.77-8.87-14.08-16.77-18.54ZM279.03,282.79c-7.7-13.77-18.95-27.16-27.31-40.23-19.06-29.8-34.34-60.85-55.2-89.36-1.95-2.67-5.12-7.35-8.73-4.1-2.53,2.28.48,5.68,1.86,7.92,23.47,38.18,46.66,73.86,73.28,111.09,1.88,2.64,11.77,15.91,16.22,18.07,1.85-1.45.88-1.61-.11-3.39Z"/><path d="M262.93,268.11c-26.62-37.2-49.8-72.96-73.28-111.05-1.38-2.24-4.38-5.7-1.85-7.97,3.61-3.24,6.78,1.45,8.73,4.11,20.86,28.49,36.14,59.55,55.2,89.35,8.36,13.08,19.62,26.45,27.31,40.23.99,1.78,1.96,1.94.11,3.39-4.45-2.15-14.33-15.43-16.22-18.07Z"/><path d="M169.51,126.06c7.9,4.45,12.37,10.76,16.77,18.54-1.07,1.02-2.13,2.04-3.2,3.06-5.86-5.7-8.76-14.95-13.57-21.6Z"/><path class="cls-1" d="M127.29,86.58s.09,0,.13.01c-.04,0-.09,0-.13-.01Z"/><path class="cls-1" d="M125.2,86.05c.24.09.48.16.72.23-.24-.07-.49-.15-.72-.23Z"/><path class="cls-1" d="M126.23,86.37c.32.08.64.14.97.19-.33-.05-.65-.11-.97-.19Z"/><path class="cls-1" d="M121.05,83.74c.24.17.49.33.73.5-.24-.16-.49-.33-.73-.5Z"/><path class="cls-1" d="M116.19,67.58c-2.43-1.88-5.04-3.53-8.55-3.79,3.15.42,3.6,1.13,8.55,3.79Z"/><path class="cls-1" d="M124.03,85.56c.29.14.57.27.87.38-.29-.12-.58-.24-.87-.38Z"/><path class="cls-1" d="M122.07,84.43c.22.14.44.28.66.41-.22-.13-.44-.27-.66-.41Z"/><path class="cls-1" d="M197.8,55.86c.33-5.01.58-10.28.78-15.17-.23,3.06-.58,6.11-1.17,9.04.38,1.51.47,3.67.39,6.13Z"/><path class="cls-1" d="M119.81,82.87c.35.25.71.5,1.05.74-.35-.24-.7-.49-1.05-.74Z"/><path class="cls-1" d="M199.45,21.93c-.17-.07-.19-.07-.2-.07.12.03.24.08.36.13-.03-.01-.07-.03-.16-.06Z"/><path class="cls-1" d="M197.3,62.53c-.46,4.32-1.12,8.69-1.55,11.81.63-2.81,1.13-6.99,1.55-11.81Z"/><path class="cls-1" d="M180.23,31.5c-13.25,2.13-25.36,3.26-36.32,3.68,13.26.15,25.85-.89,36.32-3.68Z"/><path class="cls-1" d="M80.52,70.05c-.05-.02-.1-.03-.15-.05.05.02.1.03.15.05Z"/><path class="cls-1" d="M199.22,22.56c0,.24-.02.47-.02.71.02-.47.03-.95.05-1.41-.1.04-.04.34-.03.7Z"/><path class="cls-1" d="M82.33,70.48c-.58-.11-1.18-.25-1.8-.43.62.2,1.22.34,1.8.43Z"/><path class="cls-1" d="M65.24,57.29c-.96-.99-2.02-1.94-3.28-2.84,1.17,1.01,2.26,1.95,3.28,2.84Z"/><path class="cls-1" d="M118.73,82.12c.11.08.22.15.33.23-.11-.08-.22-.15-.33-.23Z"/><path class="cls-1" d="M91.47,285.47c-3.36-.31-6.66-.73-9.85-1.25,3.2.52,6.49.94,9.85,1.25Z"/><path class="cls-1" d="M177.19,262.06c-.08.44-.17.9-.26,1.36.09-.46.18-.92.26-1.36Z"/><path class="cls-1" d="M179.82,228.95c-.08,2.27-.17,4.55-.27,6.82.1-2.27.18-4.55.27-6.82Z"/><path class="cls-1" d="M47.07,252.11c-.03-.93-.06-1.86-.08-2.77.02.92.05,1.85.08,2.77Z"/><path class="cls-1" d="M68.58,24.69c-9.03-4.33-16.82-9.36-22.94-5.96,2.8-1.73,18.5,4.82,22.94,5.96Z"/><path class="cls-1" d="M195.23,77.82c-3.22,13.89-2.77,28.48-4.25,42.67l4.25-42.67Z"/><path class="cls-1" d="M179.95,225.4c-.04,1.18-.09,2.36-.13,3.54.04-1.18.09-2.36.13-3.54Z"/><path class="cls-1" d="M46.99,249.34c-.02-.92-.04-1.83-.06-2.72.02.9.04,1.81.06,2.72Z"/><path class="cls-1" d="M180.23,218.58c0,.1,0,.21-.01.31,0-.1,0-.21.01-.31Z"/><path class="cls-1" d="M115.2,80c.12.06.24.12.36.18-.12-.06-.24-.12-.36-.18Z"/><path class="cls-1" d="M109.36,78.19c.16.02.31.05.46.07-.15-.03-.31-.05-.46-.07Z"/><path class="cls-1" d="M117.7,81.44c.09.06.17.11.26.17-.09-.06-.17-.12-.26-.17Z"/><path class="cls-1" d="M116.44,80.67c.07.04.15.08.22.13-.07-.04-.15-.08-.22-.13Z"/><path class="cls-1" d="M110.9,78.47c.15.03.3.07.45.1-.15-.04-.3-.07-.45-.1Z"/><path class="cls-1" d="M112.53,78.91c.06.02.13.04.19.06-.06-.02-.12-.04-.19-.06Z"/><path class="cls-1" d="M113.99,79.45c.12.05.23.1.34.15-.11-.05-.23-.1-.34-.15Z"/><path class="cls-1" d="M123.02,85.01c.31.18.62.35.93.51-.31-.16-.62-.33-.93-.51Z"/><path class="cls-1" d="M148.73,281.08c5.02-1.37,9.7-3.01,13.86-4.92.8-.37,3.17-1.71,5.66-3.18-2.48,1.47-4.86,2.81-5.66,3.18-4.17,1.91-8.84,3.55-13.86,4.92Z"/><path class="cls-1" d="M52.33,274.47c2.5,1.84,6.62,3.49,8.94,4.4,5.96,2.35,12.88,4.13,20.34,5.35-7.46-1.22-14.38-3-20.34-5.35-2.31-.91-6.44-2.56-8.94-4.4Z"/><path class="cls-1" d="M180.78,209.11c.09-1.25.19-2.49.3-3.73,1.61-17.72,3.92-35.41,6.15-53.09-2.23,17.68-4.54,35.37-6.15,53.09-.11,1.24-.21,2.48-.3,3.73Z"/><path class="cls-1" d="M45.65,18.72c-10.21,5.67-8.92,31.03-3.45,32.9.59.2,1.15.1,1.75-.17-.58.17-1.16.25-1.75.17"/><path class="cls-1" d="M48.53,49.14c.73-.22,1.54-.36,2.47-.38-.81-.2-1.64,0-2.47.38Z"/><path class="cls-2" d="M199.61,21.99c-.12-.05-.24-.1-.36-.13-.02.45-.03.94-.05,1.41.42-.35.68-.67.68-.92l-.22-.35h0s0,0-.04-.02Z"/><path class="cls-2" d="M199.2,23.27c-.21,5.35-.17,11.41-.62,17.41-.2,4.9-.45,10.17-.78,15.17-.07,2.08-.25,4.36-.5,6.68-.42,4.82-.93,9-1.55,11.81-.04.32-.09.63-.13.93,1.28-2.21,2.03-2.18,2.4-.63,1.57-9.37,4.49-39.69,4.87-48.15.07-1.66-1.38-3.79-3.24-4.48l.22.35c0,.25-.25.56-.68.92Z"/><path class="cls-2" d="M195.63,75.27c-.01.1-.03.2-.04.29l2.32-.27c.04-.2.07-.43.11-.66-.37-1.55-1.12-1.58-2.4.63Z"/><path class="cls-2" d="M197.91,75.3l-2.32.27c-.07.53-.13,1.01-.17,1.42-.07.28-.12.56-.19.83l-4.25,42.67s0,0,0,0c-.73,7.06-1.56,14.13-2.42,21.2-.43,3.53-.87,7.07-1.32,10.6-2.23,17.68-4.54,35.37-6.15,53.09-.11,1.24-.21,2.48-.3,3.73-.23,3.12-.41,6.28-.55,9.46,0,.1,0,.21-.01.31-.1,2.16-.18,4.34-.27,6.52-.04,1.18-.09,2.36-.13,3.54-.08,2.27-.17,4.55-.27,6.82-.15,3.41-.32,6.81-.56,10.18-.16,2.25-.34,4.48-.56,6.7-.11,1.11-.23,2.21-.36,3.31-.13,1.1-.27,2.19-.43,3.28-.04.28-.09.61-.14.97-.08.55-.19,1.18-.31,1.85-.08.44-.17.9-.26,1.36-.14.69-.3,1.39-.47,2.04-.11.43-.24.85-.36,1.23-.26.76-.54,1.38-.84,1.76-.19.24-.97.79-2.05,1.49-1.35.88-3.18,2-4.96,3.05-2.48,1.47-4.86,2.81-5.66,3.18-4.17,1.91-8.84,3.55-13.86,4.92-10.05,2.74-21.5,4.39-33.1,4.92-2.32.11-4.65.17-6.97.18-5.81.04-11.59-.2-17.19-.72-3.36-.31-6.66-.73-9.85-1.25-7.46-1.22-14.38-2.99-20.34-5.35-2.31-.91-6.44-2.56-8.94-4.4-.32-.23-.61-.47-.87-.71-.33-.3-.6-.61-.8-.92-.71-1.07-1.28-2.5-1.74-4.19-1.2-4.39-1.64-10.5-1.85-16.54-.03-.93-.06-1.86-.08-2.77-.02-.92-.04-1.83-.06-2.72-.04-2.24-.07-4.38-.12-6.33-.05-1.95-.11-3.7-.23-5.14h0c-3.22-41.71-5.77-83.91-5.45-125.61.11-14.93-.56-29.8,1.11-44.63,1.27-.19,2.5-.43,3.69-.62.6-.1,1.19-.18,1.78-.24.88-.09,1.75-.14,2.6-.09.86.05,1.7.19,2.54.46,1.12.36,2.22.96,3.32,1.89,7.56,6.36,10.68,16.92,22.91,18.41.89.11,1.74.17,2.56.2.82.03,1.61.02,2.37-.02,2.28-.12,4.31-.52,6.16-1.08,6.8-2.04,11.28-6.15,17.57-5.8.56.03,1.1.09,1.62.16.16.02.31.05.46.07.37.06.73.13,1.08.21.15.03.3.07.45.1.41.1.8.21,1.18.34.06.02.13.04.19.06.44.15.86.31,1.27.48.12.05.23.1.34.15.3.13.59.27.87.41.12.06.24.12.36.18.3.16.59.32.88.48.07.04.15.08.22.13.36.21.7.42,1.04.64.09.06.17.11.26.17.26.17.51.34.76.51.11.08.22.15.33.23.25.18.51.35.75.53.35.25.71.5,1.05.74.06.04.12.08.18.13.24.17.49.33.73.5.1.07.2.13.3.2.22.14.44.28.66.41.09.06.19.11.28.17.31.18.62.35.93.51.03.01.05.02.08.04.29.14.57.27.87.38.1.04.2.07.3.11.24.09.48.16.72.23.1.03.21.06.31.09.32.08.64.14.97.19.03,0,.06.01.08.02.04,0,.09,0,.13.01,3.32.38,7.49-.97,13.87-5.85.03-2.02-3.62-3.13-12.66-7.15-5.44.25-8.74-3.14-12.45-6.01-4.94-2.66-5.4-3.37-8.55-3.79-8.85-.65-14.04,8.86-25.32,6.68-.58-.09-1.18-.23-1.8-.43,0,0,0,0,0,0,0,0,0,0,0,0-.05-.02-.1-.03-.15-.05-8.35-2.47-10.48-7.94-15.13-12.71-1.02-.88-2.11-1.82-3.28-2.84,0,0,0,0,0,0-1.56-1.1-9.46-5.34-10.96-5.7h0c-.93.02-1.74.16-2.47.38-1.49.66-3.01,1.85-4.59,2.32-.59.26-1.15.37-1.75.17-5.47-1.87-6.64-27.03,3.45-32.9,4.38-2.55,13.91,1.63,22.94,5.96,20.54,5.31,49.25,10.21,75.33,10.5,10.96-.43,23.07-1.55,36.32-3.68,0,0,0,0,0,0,2.75-.73,15.85-5.64,18.96-8.23,0-.24.03-.47.02-.71-.01-.36-.07-.66.03-.7.02,0,.03,0,.2.07.09.03.13.05.16.06.01,0,.03,0,.04.02.09-.06-2.83-4.58-3.65-5.7-5.43-7.36-23.82-8.19-33.4-8.49-11.72-.37-17.59-.56-25.12-.23-49.14,2.11-70.99-10.8-88.69,3.81-4.49,3.71-6.97,7.78-7.65,8.88-6.92,11.22-4.05,32.25-4.42,38.22-3.42,55.27,5.21,182.09,7.62,203.13.04.36-.81,5.78,1.16,12.06,1.76,5.58,4.66,8.61,7.17,9.43.48.16,1.95.64,2.75-.05.72-.62,3.05,1.17,3.48,1.17,10.79-.1,52.62,12.79,83.63,2.74,8.13-2.64,10.61-6.03,24.9-10.59,5.01-1.6,10.34-2.98,13.44-7.83,1.36-2.13,1.99-4.45,2.43-10.24.61-7.94.91-11.9-.08-18.82-2.59-18,5.39-64.13,11.06-121.2.73-7.36,5.21-37.49,3.73-43.65-.04.23-.08.46-.11.66ZM91.78,79.19v1.08s-5.5,1.11-5.5,1.11v-2.19s5.5,0,5.5,0ZM74.15,75.89v1.08c-2.01.16-4.8.35-5.5-2.18l5.5,1.1ZM73.6,10.85h22.6v1.1h-19.29c-.97,0-3.89,2.12-6.06,1.09-.64-.84,2.23-2.19,2.75-2.19ZM119.94,14.11c2.6.05,5.02,1.11,7.63,1.19,21.79.69,43.16-.23,64.53,5.48-1.51,3.36-6.32,4.35-9.7,5.17-34.94,8.51-72.58,2.89-107.15-4.62l-13.21-4.96c19.18-2.46,38.53-2.65,57.91-2.26Z"/><path class="cls-2" d="M199.2,23.27c-3.11,2.59-16.21,7.5-18.96,8.23,0,0,0,0,0,0,0,0,0,0,0,0,16.77-2.7,18.96-7.96,18.96-8.23Z"/><path class="cls-2" d="M128.64,73.59c-6.06-2.69-9.87-4.62-12.45-6.01,3.71,2.87,7.01,6.26,12.45,6.01Z"/><path class="cls-2" d="M199.2,23.27c-.13,3.35-.31,9.94-.62,17.41.45-6,.4-12.07.62-17.41Z"/><path class="cls-2" d="M143.91,35.19c-26.07-.29-54.78-5.19-75.33-10.5,0,0,25.93,12.42,75.33,10.5Z"/><path class="cls-2" d="M51,48.76h0,0c1.49.36,9.4,4.59,10.96,5.7,0,0,0,0,0,0,0,0,0,0,0,0-3.66-3.16-6.76-5.77-10.96-5.7Z"/><path class="cls-2" d="M80.37,70c-.88-.31-1.68-1.08-15.13-12.71,4.65,4.77,6.78,10.23,15.13,12.71Z"/><polygon class="cls-2" points="80.52 70.05 80.53 70.05 80.53 70.05 80.53 70.05 80.52 70.05"/><path class="cls-2" d="M82.33,70.48c11.28,2.18,16.47-7.33,25.32-6.68-12.49-1.66-16.69,8.03-25.32,6.68Z"/><path class="cls-2" d="M48.53,49.14c-2.04.61-3.38,1.79-4.59,2.32,1.58-.47,3.1-1.67,4.59-2.32Z"/><path class="cls-2" d="M199.65,22.01h0s-.03,0-.04-.02c.03.01.04.02.04.02Z"/><path class="cls-2" d="M76.91,11.95h19.29v-1.1h-22.6c-.52,0-3.39,1.36-2.75,2.19,2.17,1.03,5.09-1.09,6.06-1.09Z"/><polygon class="cls-2" points="91.78 80.27 91.78 79.19 86.28 79.19 86.28 81.38 91.78 80.27"/><path class="cls-2" d="M74.15,76.97v-1.08s-5.51-1.1-5.51-1.1c.7,2.53,3.49,2.34,5.51,2.18Z"/></svg>