<?xml version="1.0" encoding="UTF-8"?><svg id="Layer_1" xmlns="http://www.w3.org/2000/svg" width="300" height="250" viewBox="0 0 300 250"><defs><style>.cls-1{stroke:#000;stroke-miterlimit:10;stroke-width:2px;}</style></defs><path class="cls-1" d="M265.16,99.34c-.21-1.98.12-4.02-.06-5.96-.5-5.36-4.2-11.31-5.53-16.36-1-3.82-1.25-9.73-1.41-13.78-.16-4.2,1.09-12.01-.21-15.88l-1.23,14.31c.88,5.08.04,10.01,1.08,15.13,1,4.88,4.48,10.45,5.2,15.08.69,4.45.13,8.94,1.71,13.45,1.01,2.87,6.1,16.63,5.87,19.15-.08.85-2.6,3.77-3.34,4.02-1.52.5-4-.06-5.8.17-6.48.84-7.93,7.85-13.3,9.43-5.81,1.7-9.55-.9-14.55-.76-2.99.08-13.9,1.63-16.53,2.6-8.55,3.11-10.75,13.99-19.69,14.97-5.47.6-11.73-.93-17.11.83-4.56,1.49-9.9,8.52-14.05,11.34-11.7,7.92-34.11.61-44.97-6.99-1.9-1.33-2.45-2.84-5.16-4.17-10.2-5.02-19.71-1.44-29.92-.52-10.12.91-19.59-5.71-28.49-9.51-5.86-2.5-18.24-2.1-24.5-.78-.61.13-2.63.69-2.98.98-.67.56.17,1.85-.79,1.7-1.01-6.51,3.95-11.06,5.31-16.87.99-4.25.29-7.75.69-11.84.53-5.31,3.55-16.7,5.14-21.59,3.75-11.5,2.68-17.27,2.72-28.78.01-3,.99-6.37.52-9.56,1.37-.33,1.15,1.41,1.98,2.47,5.11,6.46,6.62,10.28,14.67,12.84,15.25,4.85,33.19,9.18,49.08,9.91,42.5,1.95,103.49-4.38,140.87-28.06,2.05-1.3,7.65-6.2,7.57-8.95,0-.32-1.22-4.21-1.43-4.5-.22-.31-.55-.64-.97-1h-2.81c9.91,8.06-7.22,16.06-13.6,19.02-35.52,16.49-75.58,22.56-113.78,22.31-12.21-.08-24.96-.34-37.01-2.86-6.9-1.44-27.63-6.35-32.82-9.79-2.8-1.85-9.47-10.68-10.06-14.13-1.01-5.82,8.72-11.89,12.86-13.81.53-.24,1.09-.49,1.66-.75h-2.99c-5.01,2.52-9.3,5.41-11.49,8.5-6.52,9.17-2.08,22.76-3.33,33.03-1.26,10.32-6.85,18.57-8.2,26.56-.55,3.23.12,14.06-.34,17.58-.88,6.71-6.29,12.89-6.21,19.48.04,3,3.71.04,4.33-.19,1.23-.46,10.65-1.69,11.03-1.24,1.47,11.33-.35,56.53.48,67.81.11,1.53.28,3.48,1.27,4.63,1.19.31.79-1.75.76-2.49-.05-1.56-.5-2.9-.54-4.34-.29-10.85.26-54.77.02-65.62h5.46c.29,9.43.8,51.66,1.99,60.95l.99-.81-.74-59.59c3.44-.52,5.62,2.31,8.19,3.56,5.82,2.82,16.92,6.95,23.14,7.34,6.05.38,15.03-2.6,21.29-2.69.86-.01,6.93,1.25,7.38,1.59.98,5.3.25,56.37,2.28,61.4.63.17.82-1.02.82-1.44.06-3.8-1.3-54.13-.83-57.99.07-.62-.19-1.12.74-.8.94.32,6.37,4.98,6.61,5.86l.6,59.31c1.18.16,1.78-.03,1.99-1.38.38-2.33-.93-54.48-1-57.22,12.05,5.44,27.35,12.12,40.19,6.57,1.13,1.27.19,42.28.48,46.15.07.96-.1,1.8.78,2.43,1.16.28.77-1.13.76-1.93-.1-6.31-.08-31.84-.05-38.13,0-1.49-.18-9.04.1-9.52.12-.21,1.36-.45,1.88-.92,2.89-2.65,5.27-6.22,8.95-7.93.09,5.57-.09,11.16-.02,16.73.03,2.25.56,23.53.54,26.13-.01,1.35-1.64,8.89.72,8.46l1.2-53.29c.65-.94,7.76-2.32,9.24-2.41,3.03-.19,6.1.9,9.41.54,9.79-1.07,11.74-12.21,20.1-15.07,2.73-.93,12.24-2.45,15.14-2.5,4.93-.07,12.79,2.86,17.6.28.88-.47,4.46-5.66,5.48-4.63.19,4.62.27,39.31.51,43.96.1,1.88.98,4.29,1,6.06.03,3.33-1.06,6.97-.01,10.66h1.48s-1-63.04-1-63.04c1.93-1.97,4.43-2.25,6.96-2.03l.73,57.96,1.75.53-.52-58.12c2.02-.82,3.15-3.39,5.45-3.13.66-8.37-6.49-19.91-7.36-28.12Z"/><path class="cls-1" d="M57.37,41.65s.57-.32,1.63-.69c.93-.33,1.68-.65,2.19-.89,0,0,9.69-3.82,20.45-6.15,22.87-4.95,59.18-5.73,59.18-5.73,33.09-.71,49.64-1.06,70.72,1.91,0,0,18.87.29,36.11,7.36,2,.82,7.53,4.38,7.53,4.38l-1.37.59s-2.55-1.07-3.52-1.71c0,0-.63-.42-5.19-2.25-14.37-5.77-37.88-6.65-37.88-6.65-18.76-.7-28.14-1.05-36.24-1.14-21.55-.22-32.32-.34-45.03.49-17.28,1.12-13.86,2.04-35.49,3.95-2.46.22-22.62,1.98-26.7,5.4-.29.24-4.5,1.75-4.5,1.75l-1.89-.63Z"/></svg>