<?xml version="1.0" encoding="UTF-8"?><svg id="Layer_1" xmlns="http://www.w3.org/2000/svg" width="300" height="300" viewBox="0 0 300 300"><path d="M252.93,92.92c13.97-8.51,43.65-41.11,15.57-51.66-12.19-4.56-27.96.17-40.36,3.12-5.09,1.2-7.73,5.39-14.09,2.12-1.8,20.9,13.99,34.72,11.75,55.36,9.26-.46,18.96-3.96,27.13-8.94ZM218.8,50.7c10.09-1.49,21.01-6.11,31.08-7.02,9.51-.83,31.03-.75,25.89,16.6-1.29,4.41-14.04,20.27-17.6,23.59-3.49,3.27-26.15,15.68-28.84,12.47,1.85-17.26-13.45-28.21-10.53-45.64Z"/><path d="M85.72,46.28l-.71,2.6c.8-.23,1.65-.49,2.55-.77,0,0,0,0,0,0,0,0,0,0,0,0,.22-.34.41-.66.51-.95l-1.24-1.2h0c-.39.12-.76.23-1.12.32Z"/><path d="M87.57,48.11c10.07-3.27,25.62-9.52,34.64-12.01,14.67-4.1,52.62-15.54,65.64-9.32,3.22,1.52,6.97,7.77,12.06,7.28-13.94,14.79-36.05,15.57-53.96,20.27-18.45,4.82-42.51,16.34-60.79,12.9-4.36-.8-7.5-2.55-9.48-3.41,0,0,0,0,0,0,0,0,0,0,0,0,0,.33-.02.64-.08.91-.2.82-.78,1.31-2.21,1.1,4.78,5.7,17.91,4.87,25.78,4.07,18.84-1.89,46.48-11.75,65.42-17.2,13.06-3.76,27.98-4.13,38.56-15.14-4.36-16.97-24.37-15.62-36.78-14.59-23.45,2.01-56.45,16.71-79.53,22.99l1.24,1.2s0,0,0,0h0c-.1.29-.29.6-.51.95Z"/><polygon points="73.38 65.83 73.38 65.83 73.38 65.83 73.38 65.84 73.38 65.83 73.38 65.83"/><path d="M73.38,65.83c1.42.21,2.01-.28,2.21-1.09.07-.27.09-.58.08-.91-.74-.32-1.31-.52-1.71-.48-.66.05-.85.74-.58,2.49Z"/><path d="M290.29,57.23c-2.22-23.28-28.98-29.01-45.02-27.32-8.46.89-24.37,9.29-31.22,6.91.24,1.66-.19,3.76,0,5.53,19.45-4.47,44.87-15.74,63.18-1.66,5.8,4.47,7.7,9.63,8.48,17.72,1.51,15.68-1.07,10.69-6.95,19.24-2.39,3.5-3.41,8.63-6.63,11.55-3.1,2.81-20.16,12.58-24.33,14.33-3.36,1.41-20.52,5.07-21.52,6.59-.02,7.74,4.05,20.53,1.27,27.72-1.41,3.64-13.43,10.15-17.06,11.75-19.96,9-48.65,15.02-69.98,16-20.99.95-41.9-2.44-62.84-3.04-6.19-25.17-17.43-53.09-17.38-79.61.02-13.96,8.41-34.14,21.91-35.06-.49,2.29-3.46,2.29-5.31,4.13-3.17,3.15-7.94,9.34-3.52,13.81-.27-1.75-.08-2.43.59-2.48.4-.03.97.16,1.71.48h0s0,0,0,0c-.05-1.55-.68-3.58-.22-4.5,1.17-2.26,9.7-7.8,12.11-11.21-.9.29-1.76.54-2.56.77h0s0,0,0,0l.71-2.61c.37-.09.73-.2,1.12-.32l-2.29-2.23c6.87-1.2,12.89-5.91,19.38-8.37,12.26-4.64,30.03-9.75,42.73-12.04,13.48-2.44,42.02-7.25,53.58-.03,5.29,3.33,7.85,11.44,13.8,13.53-.51-3.41-5.24-11.35-7.41-13.42-19.65-18.75-87.43,2.81-110.59,12.36-17.4,7.17-31.05,12.44-37.41,34.89-6.09,21.44,5.65,50.89,9.29,72.1-.17,1.86-4.68,2.12-6.36,3.35-5.73,4.24-.83,16.34-3.97,18.83-12.24,1.66-27.81,11.98-36,22.73-9.63,12.64-15.23,32.68-9.68,48.76h.02c.68,1.95,6.51,14.42,7.24,15.02,2.39,1.98,4.92.66,6.85,1.63,3.63,1.81,7.65,5.91,11.24,7.57,10.07,4.7,22.42,9.29,33.22,8.69l-2.34,2.75c7.14-.83,12.07,4.59,17.35,6.56,35.56,13.3,61.67,11.21,98.23,5.53,7.92-1.23,12.04-2.15,20.21-2.84,3.61-.32,26.23-13.65,28.88-16.97,3.7-4.62,8.12-15.57,7.12-21.93-3.97-25.77.66-52.89-1.34-77.63-.9-11.01-4.31-13.62-11.58-19.41,8.26-10.64,6.7-19.95,2.36-32.45,7.41-2.52,16.75-3.96,23.77-7.37,3.53-1.72,15.45-9.03,18.55-11.41,2.58-1.95,17.48-21.47,18.33-24.25.19-.6.39-11.67.29-12.7ZM68.41,148.37l5.56,12.99-4.83-.8c-10.55-4.01-3.7-9.83-.73-12.18ZM235.4,165.63c-.78,7.77.63,18.09.41,25.51-.05,1.23-1.78,3.38-1.85,6.82-.41,18.78.68,37.53.73,56.22-9.51,12.67-21.86,19.12-35.9,22.85-28.69,7.63-73.88,13.45-101.28,1.29-9.7-4.33-13.58-7.88-23.94-10.46-11.19-2.81-29.69-5.93-39.29-12.07-3.49-2.24-6.58-6.99-10.6-9.83-1.63-1.15-3.56-.26-3.68-.4-.61-.66-6.68-15.48-6.97-17.37-1.63-11.12,1.85-25.71,7.97-34.26,5.39-7.57,23.45-21.5,31.44-23.94,5.56-1.69,10.7,2.69,10.94-8.6,1.51.69,2.75,1.89,4.41,2.41,37.27,11.98,103.37,3.5,144.42,4.59,8.46.2,18.4-.75,23.18-2.75ZM228.11,152.29c1.36,1.75,3.07,3.53,2.97,5.5-.07,1.66-1.76,2.81-2.9,3.58-2.66,1.81-5.24,1.92-5.68,1.95-7.65.37-15.28,1.29-22.94,1.15-11.26-.23-17.5.63-17.55,0-.05-.63,6.19-1.12,16.18-4.39,6-1.95,8.97-2.95,12.85-5.05,5.7-3.1,12.97-7.45,12.97-7.45,0,0,.76.46,1.63,1.63l-.02-.03c.85,1.15,1.12,1.35,2.49,3.1Z"/><polygon points="73.38 65.83 73.38 65.83 73.38 65.83 73.38 65.83"/><path d="M69.01,176.95v-.06c-18.72.34-44.75,12.58-46.85,37.73-.51,6.34,3.22,20.87,7.09,24.91,2.44,2.52,19.18,12.36,23.11,14.36,6.92,3.53,12.94,7.48,20.86,5.53,4.46-1.72-.1-20.21-.2-25.4-.32-14.85,3.34-33.14,3.34-48.42-.39-5.5-2.58-8.74-7.36-8.66ZM71.67,216.14c-.54,12.18-3.66,25.54,1.19,37.12-2.97,3.18-2.88,4.24-7.56,3.53-4.68-.72-18.33-8.89-22.74-12.07-14.19-10.18-23.91-24.25-12.65-43.09,4.34-7.28,16.09-16.03,23.59-16.74,2.27-.23.95,2.92,3.31,2.92,5.14-.06,11.26-6.11,17.13-4.27v.03c-3.19,11.04-1.8,21.39-2.29,32.57Z"/></svg>