<?xml version="1.0" encoding="UTF-8"?><svg id="Layer_1" xmlns="http://www.w3.org/2000/svg" width="300" height="250" viewBox="0 0 300 250"><path d="M291.46,154.6c-.43-4.69,1.01-11.78-.77-15.69-1.94-4.26-22.11-23.51-26.84-26.66-9.56-6.35-20.65-10.22-30.74-15.91-24.61-13.88-56.84-35.31-83.02-43.88,24.41,13.4,49.35,28.44,73.62,42.3,14.05,8.02,46.49,21.43,53.8,35.37,4.63,8.82,1.39,19.02,1.51,28.36-16.64,17.08-31.29,42.58-58.21,42.15-5.91-.1-28.25-6.78-35-9-36.65-12.05-69.14-31.6-103.1-49.18-12.55-6.5-27.09-10.21-37.59-20.03l-2.72,2.73c-3.02-.88-3.16-6.59-3.45-6.86-.5-.49-6.62,4.38-10.77-3.6-3.64-6.98,2.29-15.74,6.13-22.31,13.23-22.59,35.34-47.46,60.91-55.68,12.48-4.01,8.58,1.04,14.71,3.11,13.12,4.41,26.96,8.33,40.16,12.65-3.19-1.75-7.62-5.11-11.41-7.11-4.55-2.4-28.81-14.31-31.9-14.77-12.89-1.9-35.06,12.75-44.51,21.17-14.19,12.64-39.58,46.98-41.12,65.88-.66,8.06-1.62,14.45,5.26,19.38,18.98,13.61,48.49,24.17,69.74,34.53,15.53,7.57,30.43,16.59,46.13,23.84,14.66,6.77,42.65,19.92,57.2,23.85,4.14,1.12,7.43-.96,11.66-.92,11.25.1,20.86,1.03,31.85-5.07,11.46-6.36,40.19-31.53,46.58-42.59.85-1.47,4.27-9.76,4.32-10.75.09-1.86-2.25-3.35-2.42-5.3ZM166.53,190.44c-2.93-.7-13.84-6.72-16.44-9.01l20.58,6.86c-.81,2.54-1.72,2.72-4.13,2.15Z"/><path d="M166.53,190.44c2.41.57,3.33.4,4.13-2.15l-20.58-6.86c2.61,2.29,13.51,8.31,16.44,9.01Z"/><path d="M151.43,106.68c8.25,2.36,18.08,2.52,26.65,4.74,5.87-.74,8.51-5.43,12.79-7.89,6.79-3.89,18.69-3.1,10.55-16.65-5.55-9.24-13.01-.26-20.39-1.47-4.58-.75-8.12-8.86-13.03-10.38-3.12-.97-8.44-1.05-11.66-.53-8.9,1.46-23.02,17.65-15.45,26.96,1.48,1.81,8,4.49,10.55,5.21ZM169.2,79.31c2.96,2,6.57,7.72,9.3,8.55,9.21,2.79,22.84-11.1,22.18,9.71-3.89,2.29-8.65.85-12.53,1.87-3.93,1.03-8.14,5.93-14.21,6.47-4.36.39-15.81-2.68-19.09-5.38-9.6-7.91-3.94-33.63,14.36-21.22ZM146.66,84.03l3.42,17.82c-9.89-1.73-10.82-11.9-3.42-17.82Z"/><path d="M212.96,130.89c.56.47,2.11,9.39,6.21,13,8.69,7.65,36.1,6.15,36.5-7.05.03-.84-5.34-14.39-6.17-15.73-6.72-10.83-15.51-5.73-24.71-5.49-6.94.18-14.45-4.61-19.13,5.46-4.53,9.74,5.6,8.42,7.29,9.81ZM245.86,143.37c-11.99,5.54-29.71,1.03-29.91-14.08,7.23-1.12,9.18,10.46,14.68,12.05,5.02,1.46,13.12.11,18.23-1.08.75,3.92-1.05,2.21-3,3.1ZM216.61,116.17c1.26.13,2.89,2.09,5.48,2.27,9.52.68,21.82-6.8,26.77,8.09l-5.49.69,6.28,3.44-1.04,6.61c-6.58.47-14.3,3.92-20.29-.47-2.92-2.14-5.58-9.11-9.25-10.07-3.3-.86-11.63,4-11.39-.9.22-4.61,4.02-10.19,8.95-9.67Z"/><path d="M81.02,55.43c-1.62.69-5.04,3.27-6.41,4.56-19.68,18.48,16.45,27.58,30.88,26.75,35.13-2.04,25.17-33.92-2.29-33.95-5.1,0-18.05.86-22.18,2.64ZM123.7,69.96c3.68,13.92-17.51,13.49-26.48,12.74-31.83-2.65-31.61-26.62-.88-27.17,10.13-.18,24.33,2.95,27.36,14.43Z"/><path d="M110.92,137.49c-5.46,20.73,41.6,23.52,48.05,8.23,7.12-16.88-20.1-26.66-32.61-23.01-4.29,1.25-14.17,9.94-15.44,14.77ZM130.26,125.15c8.22-1.35,30.72,8.9,26.02,19.19-4.49,9.81-33.85,8.61-40.08,1.02-2.1-2.56-2.44-8.64-.56-11.14,1.1-1.47,4.01-.58,5.53-1.55,3.16-2.01,5.26-6.89,9.09-7.52Z"/><path d="M66.1,92.64c-19.41,2-23.7,21.14-7.25,32.54,8.42,5.83,37.7,4.84,39.2-8.87,1.88-17.15-17.37-25.16-31.95-23.66ZM59.61,121.68c-10.84-8.52-10.25-23.62,5.05-26.36,5.73-1.02,17.54.86,21.69,5.11,1.05,1.07,8.11,12.4,8.31,13.72,2.06,13.08-27.71,13.31-35.06,7.53Z"/><path d="M192.26,155.68c-12.18,1.95-12.26,10.08-8.62,20.3,3.9,10.96,23.28,14.83,32.21,8.76,23.42-15.91-5.3-31.99-23.59-29.06ZM220.76,174.52c-.32.69-8.26,8.61-8.96,8.93-6.55,2.97-21-.24-24.49-7.01-4.75-9.19-1.72-17.58,9.11-17.97,7.51-.27,29.25,5.38,24.34,16.05Z"/><path d="M154.84,100.53c3.28,2.7,14.73,5.77,19.09,5.38,6.07-.54,10.28-5.44,14.21-6.47,3.88-1.02,8.64.41,12.53-1.87.66-20.8-12.97-6.92-22.18-9.71-2.73-.83-6.34-6.54-9.3-8.55-18.3-12.41-23.96,13.3-14.36,21.22Z"/><path d="M219.06,126.74c3.67.96,6.34,7.93,9.25,10.07,5.99,4.39,13.72.94,20.29.47l1.04-6.61-6.28-3.44,5.49-.69c-4.95-14.89-17.24-7.41-26.77-8.09-2.59-.19-4.23-2.14-5.48-2.27-4.93-.52-8.72,5.06-8.95,9.67-.23,4.9,8.09.04,11.39.9Z"/></svg>