<?xml version="1.0" encoding="UTF-8"?><svg id="Layer_1" xmlns="http://www.w3.org/2000/svg" width="300" height="300" viewBox="0 0 300 300"><defs><style>.cls-1{stroke:#000;stroke-miterlimit:10;stroke-width:2px;}</style></defs><path class="cls-1" d="M186.42,105.97c8.53-12.34,16.23-25.22,15.08-40.96-7.51-15.96-12.16-39.68-20.88-54.34-1.1-1.85-1.2-1.9-3.21-2.66-9.11-3.45-29.91-4.36-39.65-3.19-3.09.37-11.44,2.06-13.21,4.43-.96,1.29-1,3.55-1.99,5.06-12.85,19.72-32.91,49.99-29.14,74.15.75,4.79,9.62,15.15,9.16,17.54-10.56,9.5-11.8,24.39-17.24,36.83-9.16,20.93-20.85,38.71-20.25,63.31.81,33.21,10.59,45.41,30.56,69.35,4.47,5.36,7.51,13.74,14.99,15.58,6.67,1.64,35.53,5,41.93,4.57,5.75-.39,28.71-9.31,33.56-13.25,4.68-3.8,14.8-18.41,18.23-24.09,27.61-45.65,13.87-94.64-9.28-138.64-2.52-4.79-5.97-9-8.64-13.68ZM133.87,9.18c12.79-1.5,25.58-1.29,38.23,1.2.28,1.66-2.08,1.71-3.26,2-10.91,2.69-26.04,2.51-36.7-.85-1.65-1.64.08-2.15,1.74-2.34ZM204.46,252.54c-6.67,12.07-16.84,27.32-29.68,32.63-18.29,7.56-39.04,6.66-58.24,2.33-6.24-1.41-11.57-6.62-15.58-11.46-18.41-22.25-29.96-36.99-31.19-67.56-1.02-25.3,11.15-44.57,20.6-66.48,5.29-12.25,6.14-28.51,19.4-34.66-24.66-22.11-6.73-52.38,6.87-75.43,2.04-3.46,9.61-17.24,12.72-17.83,14.28,5.42,34.79,5.21,48.61-1.36,5.07,14.21,12.73,28.97,17.35,43.2,5.05,15.57,2.97,27.01-5.78,40.64-1.72,2.68-7.56,7.36-6.73,10.53.39,1.51,8.75,12.74,10.66,16.5,20.2,39.71,34,87.29,10.99,128.94Z"/></svg>