<?xml version="1.0" encoding="UTF-8"?><svg id="Layer_1" xmlns="http://www.w3.org/2000/svg" width="300" height="250" viewBox="0 0 300 250"><path d="M130.95,31.35c7.75,9.81.63,32.8,19.41,42.82,5.5,2.94,13.68,2.46,16.99,7.24-10.14,1.25-21.68-2.88-28.56-10.43-15.55-17.08.37-47.8-35.33-39.72-11.57,2.62-14.79,15.52-14.3,25.95.26,5.55,7.03,39.57,9.21,42.59,1.16,1.6,5.1,2.51,6.91,4.65,7.82,9.24-5.49,18.38-3.32,21.25,31.9,4.51,46.91,88.05,17.49,96.62-18.21,5.31-30.52-2.61-36.93-19.16-11.68-30.15-10.46-51.07-4.75-81.57.65-3.46-1.41-6.84-.29-10.65,1.87-6.39,9.25-11.91,16.04-10.54-6.86-29.35-23.99-80.82,26.23-73.67,2.25.32,10.07,3.22,11.19,4.63ZM83.21,119.19c6.82,2.85,16.01,2.9,18.41-5.5,4.25-14.93-24.43-11.68-18.41,5.5ZM118.4,218.05c3.31-1.9,10.5-18.97,11.04-23.71,3.13-27.29-15.6-71.88-48.58-68.63-.54,12.5-3.12,24.15-2.07,36.89.69,8.35,6.78,35.41,10.02,42.72,4.09,9.24,20.64,17.86,29.58,12.73Z"/><path d="M226.41,75.78c.38,3.95-6.83,2.01-8.96,1.57-9.24-1.91-18.41-6.2-24.45-13.52-7.78-9.44-9.28-28.42-26.42-19.43-13.95,7.32-14.41,25.16-9.22,38.19,4.59,11.5,18.28,17.88,22.78,25.74,2.43,4.26,1.31,8.54,3.09,11.68,1.72,3.05,14.59,8.47,19.65,16.21,15.47,23.68,10.28,72.53-27.7,61.44-10.29-3.01-19.14-26.76-20.22-36.74-1.69-15.66,1.38-22.03,3.8-35.75,1.67-9.49-3.97-18.6,8.59-23.03-17.83-12.34-29.06-48.1-5.68-60.54,27.59-14.67,28.34,17.34,44.7,27.85,6.04,3.88,13.39,4.34,20.05,6.33ZM175.8,117.92c.92-6.62-3.76-11.45-10.52-10.51l-.05,11.63,10.57-1.13ZM166.58,126.68c-13.22,4.44-6.32,76.01,24.6,66.76,22.79-6.82,13.58-79.57-24.6-66.76Z"/></svg>