<?xml version="1.0" encoding="UTF-8"?><svg id="Layer_1" xmlns="http://www.w3.org/2000/svg" width="300" height="250" viewBox="0 0 300 250"><path d="M254.58,58.84c-3.31-1.65-7.56-1.24-10.44-2.59-2.11-1-2.23-3.32-3.43-4.07-5.34-3.31-17.87.59-22.81,4.38l-.72-4.34-2.86,1.48c.7-15.77,1.86-21.25-13.64-27.48-29.49-11.86-81.47-8.88-113.36-6.5-5.95.45-28.57,8.69-34.55,11.62-12.56,6.15-8.89,19.02-10.11,30.27-4.55,41.89-4.69,87.83,5.01,129.13,3.7,15.77,6.39,22.89,20.2,31.72,28.23,18.05,94.54,21.65,126.64,9.72,2.14-.79,11.55-5.34,12.66-6.47,3.5-3.57,4.57-13.06,7.07-16.7,1.54-2.23,9.15-5.5,12.18-8.38,27.51-26.14,44.56-71.05,45.63-108.66.37-13.03-5.09-26.93-17.47-33.13ZM261.89,68.14l-.88,2.95-10.12,7-4.69-3.79,5.64-11.95,10.06,5.79ZM241.69,60.06l7.22.85-5.77,10.91-5.78-.84,4.32-10.92ZM227.32,59.46l8.62,1.45-2.81,10.89-8.74.63,2.93-12.97ZM222.95,59.47l-3.6,15.83c-2.86-.06-5.03-18.64,3.6-15.83ZM215.67,83.5c9.37-6.49,14.65-8.08,25.73-4.19l1-2.56c3.28.09,8.79,10.5,9.31,13.81,3.73,23.57-17.5,70-32.45,88.51-1.36,1.69-2.35,3.49-4.95,2.97,3.34-32.62,4.37-65.86,1.36-98.53ZM212.91,67.32c.4,11.13-.14,23.17,0,34.61.27,20.44-.32,40.92-.07,61.35l-2.88-2.13-5.76-116.74,5.72-.79c.02,7.68,2.71,16.19,2.98,23.71ZM186.91,31.34c1.52-8.34,18.25,1.84,23.06,3.63,2.44,3.51-8.46,6.32-10.6,7.39-2.38,1.19-4.51,5.74-7.89,3.83-4.61-4.91-5.89-7.59-4.57-14.85ZM182.39,26.47l-.47,12.87-5.69,1.25c-4.16-1.36-4.95-21.22,6.17-14.12ZM155.24,22.04l14.36-.08v17.32c-16.14,1.66-17.87-2.3-14.36-17.24ZM150.83,20.52l-3.62,17.27-5.01,1.47v-17.29s8.63-1.45,8.63-1.45ZM136.42,21.96l-.02,17.31c-6.02-2.66-11.07.59-17.3.01v-17.32s17.32,0,17.32,0ZM106.12,23.4h8.67s0,15.88,0,15.88l-7.01-.21c-2.37-4.88-1.62-10.42-1.66-15.67ZM101.81,24.84c4.09,19.21-3.47,13.61-18.74,14.41l-1.46-12.96,20.2-1.45ZM75.14,27.74c4.74-.99,3.66,9.12,3.58,11.52-4.76,1.03-7.17-10.77-3.58-11.52ZM70.06,32.07l-.2,6.28-2.15,2.16-14.95-1.25c.98-3.78,15.92-8.62,17.3-7.19ZM54.57,198.25c-8.18-24-11.96-66.31-11.98-91.96-.02-21.14,5.36-42.88,4.39-64.14,15.53-1.89,8.9,7.32,8.6,16.53-1.34,41.87-.21,85.14,6.03,126.76,1.51,10.06,2.9,20.43,7,29.75-8.32,0-11.78-10.24-14.06-16.94ZM72.17,218.15c-13.25-56.63-15.96-116.53-12.19-174.55,13.32,1.38,7.41,8.01,7.14,16.52-1.07,34.43,1.38,79.39,4.4,113.97,1.32,15.11,5.29,30.38,7.19,45.44l-6.55-1.37ZM136.41,235.4l.07-70.01-3.09-38.87,1.3-21.64-2.62-31.71-2.85-15.15,3.57,177.39c-7.33-2.86-18.95-1.29-25.64-3.2-1.8-.51-3.47-3.19-5.94-4.15-3.95-1.54-16.48-1.72-18.14-5.28-1.18-15.4-5.6-30.5-7.21-45.8-1.97-18.72-.34-37.77-4.32-56.24l-1.24-71.87,3.03-2.09c5.13,1.94,12.5,1.03,17.39,2.87,5.2,1.95,1.08,11.91.94,16.25-.86,26.96.59,54.01,1.56,80.76.39,10.77,1.53,74.45,5.73,78.65,2.72.14,2.94.68,2.91-2.18-.06-5.48-2.49-11.78-2.91-17.31-3.38-44-6-102-2.97-145.69.17-2.43.48-4.75,1.35-7.03l58.27,4.91c1.35.37,3.35,5.06,3.82,6.6,2.88,9.45,3.82,40.11,4.41,51.84,1.56,31.1,2.19,67.25,0,98.03-.4,5.65-2,12.35-2.86,18.03,4.51,4.85,6.8-19.56,7.19-20.92,1.19-51.87-1.25-103.56-7.2-155l11.34.19c6.09,3.9,5.56,53.12,5.91,62.59.13,3.41,1.48,6.57,1.56,9.98.87,35.45-2.34,69.49-5.82,104.62l-37.52,1.44ZM207.15,203.01c-.28,3.93-2.64,19.87-4.74,21.94-1.06,1.05-10.23,3.36-12.63,4.2-3.38,1.18-6.38,5.64-12.99,3.36-.92-5.46,2.39-9.98,2.9-15.13,2.27-23.04,2.84-46.35,2.81-69.17-.04-31.48.23-63.99-7.15-94.5l22.41-5.53c1.64.67,1.79,1.83,2.07,3.39,2.19,12.15,1.92,24.04,2.94,36,3.16,37.14,6.98,78.22,4.37,115.44ZM209.98,205.1l-.1-13.52,8.02-5.19c9.27,9.34,3.32,16.72-7.92,18.72ZM225.86,193.57c-1.29-6.08-6.21-9.29-2.89-15.86,2.11-1.66,13.2,15.73,2.89,15.86ZM234.47,186.35l-7.18-12.25,5.77-12.26c2.92-2.77,9.88,11.07,9.59,13.74-.28,2.5-8.53,6.63-8.18,10.77ZM246.02,170.49l-8.48-12.45,2.76-6.28c2.02-1.42,8.52,6.26,9.84,8.13l-4.12,10.6ZM251.08,156.05c-6.1-6.84-10.22-9.59-5.02-18.71,11.35,2.35,12.69,10.63,5.02,18.71ZM260.45,140.21c-6.68-1.34-14.03-7.1-10.07-14.42,7.65,1.88,10.99,6.52,10.07,14.42ZM263.33,128.67l-11.51-5.84,1.43-10.02,12.36,5.74-2.28,10.11ZM265.51,114.22l-10.82-4.31c-.77-8.99,7.56-4.98,12.99-4.28l-2.17,8.6ZM266.3,103.42l-10.18-2.14.25-14.18c3.83-2.1,6.91-3.09,11.17-1.56l1.57,16.43-2.82,1.45ZM267.65,82.53c-4.46-5.47-17.03,8.17-15.41-.76,1.21-6.68,16.24-13.2,15.41.76Z"/><path d="M146.5,77.47c.07-6-.02-12.02,0-18-3.77-.33-2.39-.19-2.83,2.17-4.61,24.78,1.24,59.22,1.45,85.01.25,29.15-3.34,58.19-.77,87.32,5.91-2.67,3.79-17.73,3.65-23.87-.97-43.7-1.99-89.19-1.51-132.63Z"/><path d="M111.96,119.25c-.35-8.05-2.52-17.86-2.93-25.91-.53-10.53.42-21.19-.01-31.73-.07-1.76,1.09-5.36-1.43-5.03-2.33,32.02,3.07,63.94.28,95.89l5.49,77.14,4.14-2.42c-.26-14.24-3.27-28.8-4.13-43.02-1.3-21.58-.47-43.38-1.4-64.94Z"/><path d="M188.35,53.69l7.26,74.21c-1.26,24.41,3.48,49.25,1.43,73.66-.5,5.95-4.58,15.89-4.31,20.3.12,1.89,1.51,3.87,3.51,3.44,2.35-1.52,1.91-2.6,2.03-4.86,2.54-49.77,2.5-112.49-7.07-161.67-.41-2.1.02-4.47-2.86-5.06Z"/><path d="M68.63,43.6c.1-1.04,5.39-1.33,12.97-1.7,11.76-.59,20.4-.16,24.44,0,21.35.84,23.36-1.59,42.46-.52,2.08.12,8.42.83,21.1,2.22,12.93,1.42,16.74,1.95,16.82,3.05.14,1.83-10.19,3.99-13.02,4.58-12.07,2.53-21.73,2.49-24.91,2.46-21.29-.21-31.94-.31-45.59-2.16-14.74-1.99-34.48-5.89-34.28-7.93Z"/></svg>