<?xml version="1.0" encoding="UTF-8"?><svg id="Layer_1" xmlns="http://www.w3.org/2000/svg" width="300" height="300" viewBox="0 0 300 300"><path d="M158.52,252.15c-.99,6.14,9.18,1.69,12.67,2.59.99-6.14-9.18-1.69-12.67-2.59Z"/><path d="M72.59,184.67c-6.3-2.66-32.71,32.92-25.41,42.56,1.45,1.88,4.23,2.89,6.42,2.4,2.71-.58,3.63-3.11,4.53-6.88-1.44-.1-2.9-.22-4.34-.35,1.39-.84,3.05-1.5,4.89-1.94,1.17-4.91,2.74-11.3,7.58-17.87,1.9-2.58,4.07-4.88,5.69-7.16-.21-.35-.39-.73-.57-1.17.51-.12,1.03-.27,1.54-.36,1.21-2,1.83-4.04,1.34-6.28-.2-.9-.54-2.47-1.66-2.94Z"/><path d="M52.11,220.38c-.19.83-.35,1.6-.54,2.33,15.08,1.26,30.25,1.59,44.65,6.99,10.42,3.94,21.77,12.35,32.16,17.68,1.1.54,15.12,4.85,7.43,6.74-3.76.93-12.82-4.46-18.95-3.98-2.56.18-13.03,4.58-13.21,6.37-.34,3.15,13.37,17.28,16.68,19.83,15.91,12.26,53.59,22.63,64.5.12.32-5.75-4.2-5.05-6.19-7.33-1.17-1.33-.9-4.01-3-5.79-.95-.78-15.58-5.68-12.31-8.9,6.91-.48,27.8-.94,31.88-6.3,3.31-4.34.84-9.43,2.6-12.77,1.35-2.6,6.76-2.98,7.86-9.45,1.46-8.53,1.17-32.08-2.97-39.37-4.67-8.19-16.21-13.76-23.72-18.72-2.71-1.59-2.2,6.59-5.31,3.41-1.3-1.36,7.7-32.38,11.88-35.37,4.47-3.2,11.44-1.54,17.33-3.76,5.66-2.17,9.75-8.71,13.95-12.96l35.84-74.91c1.45-12.52-19.92-18.23-29.75-21.91-20.75-7.79-49.58-16.09-71.63-12.42-1.9.32-3.11.17-4.57,1.82-6,6.8-3.36,34.72-3.46,43.95-.29,22.95-4.48,33.02,7.64,54.91,2.69,4.85,12.29,14.96,12.89,17.37,2.97,12.45-5.24,29.23-4.31,42.34-20.5-7.27-33.9,11.27-51.39,17.11-14.45,4.81-27.62,2.61-41.78,5.96-.27.51-.6,1.05-.97,1.56.6,1.06,1.31,1.59,2.07,1.78,2.2.53,4.73-1.73,6.03-1.79l25.09-1.14c17.07-.78,29.5-17.82,47.79-19.68,3.08-.31,6.12-.61,9.19-.22,3.85.98,1.26,4.72,1.15,7.49-40.79,6.93-24.61,33.64,10.18,29.91,5.24-.54,11.42-2.86,16.73-3.89,6.93-12.18.53-25.56-13.89-20.06l2.57-12.84c7.82-.32,21.56,5.71,25.98,11.99,15.12,21.42-11.94,23.41-25.75,28.62-2.65.98-3.69.3-2.91,4.02l32.52-9.39c-.57,13.77-17.3,14.26-27.1,18.3-2.49,1-4.22-.63-3.28,3.74,9.42,1.09,20.72-7.8,28.62-9.28,7.38-1.39-1.82,8.48-2.95,9.43-5.45,4.5-9.79,5.69-16.77,5.94-4.77.15-11.17-3.94-13.24,2.05,1.57-.57,3.45,1.46,4,1.43l22.72-1.04c.31,13.3-20.56,7.63-28.88,7.84-11.7.27-14.29,3.29-27.78-.84-23.48-7.2-29.9-23.15-58.5-26.82-7.23-.89-18.77-2.21-26.84-.13ZM114.67,255.09c5.9-1.13,11.53,5.44,16.67,5.37,7.77-.06,13.72-9.32,22.5-7.15l-.95,12.76c2.99,0,.61-7.37,5.13-6.59,2.82.5,6.38,9.43,7.98,10.34,4.14,2.38,11.96,1.2,12.63,10.96-17.96,9.72-59.97-4.19-63.97-25.68ZM150.15,205.04c-21.06-4.61-13.65-19.08,5.43-17.05l-5.43,17.05ZM154.89,207.1l11.4-49.52,2.43-25.88,10.79,3.43c-6.17,23.08-15.46,47.62-13.65,71.46l-10.97.5ZM146.42,86.84c-4.12-13.5,1.22-53.25,2.39-68.89.19-2.28.1-3.6,2.84-3.23,4.02.51,18.64,11.6,23.53,13.92,9.7,4.53,29.81,9.65,40.37,10.25,9.72.55,20.67-1.67,30.54-1.39,2.92,14.86-9.54,26.27-12.31,40.33-25.97,60.82-41.93,55.05-58.91,51.31-20.63-4.56-24.33-28.8-28.46-42.3ZM168.98,206.49l.87-15.95c8.24,2.39,13.29,3.22,11.38,13.55l-12.25,2.4ZM161.81,14.33c26.14-2.31,50.67,9.29,74.62,18.05-2.67,3.55-7.7,2.95-11.61,2.9-19.69-.39-47.36-8.68-63.01-20.95Z"/></svg>