<svg width="4292" height="142" viewBox="0 0 4292 142" fill="none" xmlns="http://www.w3.org/2000/svg">
<path d="M421.652 131.456C292.862 133.607 255.027 137.319 153.034 139.038C141.042 139.24 -33.3324 155.025 7.05774 93.5746C14.3302 82.5122 98.1407 47.6784 98.1407 47.6784C134.635 23.4883 194.03 24.557 246.109 22.8529C463.818 15.7186 640.617 5.79704 959.756 30.7092C1152.57 45.7576 1426.34 -0.499607 2448.57 23.6038C2717.53 29.9438 3095.55 0.193604 3406.07 1.01679C3543.95 1.37784 3691.53 23.2717 3866.94 29.3661C3993.74 33.7709 4155.73 65.2975 4225.3 63.6655C4254.74 62.9723 4295.04 74.1214 4290.67 97.2717C4290.67 97.4739 4204.26 114.761 4203.53 114.833C4089.5 126.531 4120.67 121.245 4046.04 122.025C3894.3 123.614 3839.06 122.025 3755.08 124.509C3331.09 136.958 3568.5 130.806 2960.82 123.946C2804.63 122.184 2580.6 95.6687 2145.75 88.0434C1881.76 83.4075 1062.74 126.213 903.262 122.762C811.009 120.769 554.512 126.603 421.609 131.484L421.652 131.456Z" fill="#005E62" stroke="#005E62" stroke-width="2" stroke-miterlimit="10"/>
</svg>
