<?xml version="1.0" encoding="UTF-8"?><svg id="Layer_1" xmlns="http://www.w3.org/2000/svg" width="1026.71" height="152.36" viewBox="0 0 1026.71 152.36"><defs><style>.cls-1{stroke:#000;stroke-miterlimit:10;stroke-width:2px;}</style></defs><path class="cls-1" d="M920.11,126.96c29.75,1.49,38.49,4.06,62.05,5.25,2.77.14,43.05,11.07,33.72-31.48-1.68-7.66-21.04-31.78-21.04-31.78-8.43-16.75-22.15-16.01-34.18-17.19-50.29-4.94-91.13-11.81-164.85,5.44-44.54,10.42-107.78-21.61-343.91-4.92-62.13,4.39-149.45-16.21-221.18-15.64-31.85.25-65.94,15.41-106.46,19.63-29.29,3.05-66.71,24.88-82.78,23.75-6.8-.48-16.11,7.24-15.1,23.27,0,.14,19.96,12.11,20.13,12.16,26.34,8.1,19.14,4.44,36.38,4.98,35.05,1.1,47.81,0,67.21,1.72,97.94,8.62,43.1,4.36,183.47-.39,36.08-1.22,87.83-19.58,188.28-24.86,60.98-3.21,250.17,26.43,287.01,24.04,21.31-1.38,80.56,2.66,111.26,6.04Z"/></svg>